<svg width="32" height="13" viewBox="0 0 32 13" fill="none" xmlns="http://www.w3.org/2000/svg">
<path d="M5.45312 8.14062H2.625V6.02344H5.45312C5.83854 6.02344 6.15104 5.95833 6.39062 5.82812C6.63021 5.69792 6.80469 5.51823 6.91406 5.28906C7.02865 5.05469 7.08594 4.79167 7.08594 4.5C7.08594 4.1875 7.02865 3.89844 6.91406 3.63281C6.80469 3.36719 6.63021 3.15365 6.39062 2.99219C6.15104 2.82552 5.83854 2.74219 5.45312 2.74219H3.65625V12H0.914062V0.625H5.45312C6.36458 0.625 7.14844 0.791667 7.80469 1.125C8.46615 1.45833 8.97396 1.91667 9.32812 2.5C9.68229 3.07812 9.85938 3.73958 9.85938 4.48438C9.85938 5.21875 9.68229 5.85938 9.32812 6.40625C8.97396 6.95312 8.46615 7.38021 7.80469 7.6875C7.14844 7.98958 6.36458 8.14062 5.45312 8.14062ZM11.3359 0.625H15.8125C16.6875 0.625 17.4479 0.755208 18.0938 1.01562C18.7396 1.27604 19.237 1.66146 19.5859 2.17188C19.9401 2.68229 20.1172 3.3125 20.1172 4.0625C20.1172 4.71354 20.0156 5.25781 19.8125 5.69531C19.6094 6.13281 19.3255 6.49479 18.9609 6.78125C18.6016 7.0625 18.1823 7.29427 17.7031 7.47656L16.8047 7.98438H13.0469L13.0312 5.86719H15.8125C16.1615 5.86719 16.4505 5.80469 16.6797 5.67969C16.9089 5.55469 17.0807 5.3776 17.1953 5.14844C17.3151 4.91406 17.375 4.63542 17.375 4.3125C17.375 3.98438 17.3151 3.70312 17.1953 3.46875C17.0755 3.23438 16.8984 3.05469 16.6641 2.92969C16.4349 2.80469 16.151 2.74219 15.8125 2.74219H14.0781V12H11.3359V0.625ZM17.5625 12L15.0469 6.96875L17.9531 6.95312L20.5 11.8828V12H17.5625ZM31.3984 6.08594V6.54688C31.3984 7.41667 31.276 8.19792 31.0312 8.89062C30.7917 9.57812 30.4505 10.1667 30.0078 10.6562C29.5651 11.1406 29.0417 11.513 28.4375 11.7734C27.8333 12.0286 27.1667 12.1562 26.4375 12.1562C25.7031 12.1562 25.0312 12.0286 24.4219 11.7734C23.8177 11.513 23.2917 11.1406 22.8438 10.6562C22.401 10.1667 22.0573 9.57812 21.8125 8.89062C21.5729 8.19792 21.4531 7.41667 21.4531 6.54688V6.08594C21.4531 5.21615 21.5729 4.4349 21.8125 3.74219C22.0573 3.04948 22.3984 2.46094 22.8359 1.97656C23.2786 1.48698 23.8021 1.11458 24.4062 0.859375C25.0156 0.598958 25.6875 0.46875 26.4219 0.46875C27.151 0.46875 27.8177 0.598958 28.4219 0.859375C29.0312 1.11458 29.5573 1.48698 30 1.97656C30.4427 2.46094 30.7865 3.04948 31.0312 3.74219C31.276 4.4349 31.3984 5.21615 31.3984 6.08594ZM28.6172 6.54688V6.07031C28.6172 5.50781 28.5677 5.01302 28.4688 4.58594C28.375 4.15365 28.2344 3.79167 28.0469 3.5C27.8594 3.20833 27.6276 2.98958 27.3516 2.84375C27.0807 2.69271 26.7708 2.61719 26.4219 2.61719C26.0573 2.61719 25.7396 2.69271 25.4688 2.84375C25.1979 2.98958 24.9714 3.20833 24.7891 3.5C24.6068 3.79167 24.4688 4.15365 24.375 4.58594C24.2865 5.01302 24.2422 5.50781 24.2422 6.07031V6.54688C24.2422 7.10417 24.2865 7.59896 24.375 8.03125C24.4688 8.45833 24.6068 8.82031 24.7891 9.11719C24.9766 9.41406 25.2057 9.63802 25.4766 9.78906C25.7526 9.9401 26.0729 10.0156 26.4375 10.0156C26.7865 10.0156 27.0964 9.9401 27.3672 9.78906C27.638 9.63802 27.8646 9.41406 28.0469 9.11719C28.2344 8.82031 28.375 8.45833 28.4688 8.03125C28.5677 7.59896 28.6172 7.10417 28.6172 6.54688Z" fill="#242424"/>
<path d="M5.45312 8.14062H2.625V6.02344H5.45312C5.83854 6.02344 6.15104 5.95833 6.39062 5.82812C6.63021 5.69792 6.80469 5.51823 6.91406 5.28906C7.02865 5.05469 7.08594 4.79167 7.08594 4.5C7.08594 4.1875 7.02865 3.89844 6.91406 3.63281C6.80469 3.36719 6.63021 3.15365 6.39062 2.99219C6.15104 2.82552 5.83854 2.74219 5.45312 2.74219H3.65625V12H0.914062V0.625H5.45312C6.36458 0.625 7.14844 0.791667 7.80469 1.125C8.46615 1.45833 8.97396 1.91667 9.32812 2.5C9.68229 3.07812 9.85938 3.73958 9.85938 4.48438C9.85938 5.21875 9.68229 5.85938 9.32812 6.40625C8.97396 6.95312 8.46615 7.38021 7.80469 7.6875C7.14844 7.98958 6.36458 8.14062 5.45312 8.14062ZM11.3359 0.625H15.8125C16.6875 0.625 17.4479 0.755208 18.0938 1.01562C18.7396 1.27604 19.237 1.66146 19.5859 2.17188C19.9401 2.68229 20.1172 3.3125 20.1172 4.0625C20.1172 4.71354 20.0156 5.25781 19.8125 5.69531C19.6094 6.13281 19.3255 6.49479 18.9609 6.78125C18.6016 7.0625 18.1823 7.29427 17.7031 7.47656L16.8047 7.98438H13.0469L13.0312 5.86719H15.8125C16.1615 5.86719 16.4505 5.80469 16.6797 5.67969C16.9089 5.55469 17.0807 5.3776 17.1953 5.14844C17.3151 4.91406 17.375 4.63542 17.375 4.3125C17.375 3.98438 17.3151 3.70312 17.1953 3.46875C17.0755 3.23438 16.8984 3.05469 16.6641 2.92969C16.4349 2.80469 16.151 2.74219 15.8125 2.74219H14.0781V12H11.3359V0.625ZM17.5625 12L15.0469 6.96875L17.9531 6.95312L20.5 11.8828V12H17.5625ZM31.3984 6.08594V6.54688C31.3984 7.41667 31.276 8.19792 31.0312 8.89062C30.7917 9.57812 30.4505 10.1667 30.0078 10.6562C29.5651 11.1406 29.0417 11.513 28.4375 11.7734C27.8333 12.0286 27.1667 12.1562 26.4375 12.1562C25.7031 12.1562 25.0312 12.0286 24.4219 11.7734C23.8177 11.513 23.2917 11.1406 22.8438 10.6562C22.401 10.1667 22.0573 9.57812 21.8125 8.89062C21.5729 8.19792 21.4531 7.41667 21.4531 6.54688V6.08594C21.4531 5.21615 21.5729 4.4349 21.8125 3.74219C22.0573 3.04948 22.3984 2.46094 22.8359 1.97656C23.2786 1.48698 23.8021 1.11458 24.4062 0.859375C25.0156 0.598958 25.6875 0.46875 26.4219 0.46875C27.151 0.46875 27.8177 0.598958 28.4219 0.859375C29.0312 1.11458 29.5573 1.48698 30 1.97656C30.4427 2.46094 30.7865 3.04948 31.0312 3.74219C31.276 4.4349 31.3984 5.21615 31.3984 6.08594ZM28.6172 6.54688V6.07031C28.6172 5.50781 28.5677 5.01302 28.4688 4.58594C28.375 4.15365 28.2344 3.79167 28.0469 3.5C27.8594 3.20833 27.6276 2.98958 27.3516 2.84375C27.0807 2.69271 26.7708 2.61719 26.4219 2.61719C26.0573 2.61719 25.7396 2.69271 25.4688 2.84375C25.1979 2.98958 24.9714 3.20833 24.7891 3.5C24.6068 3.79167 24.4688 4.15365 24.375 4.58594C24.2865 5.01302 24.2422 5.50781 24.2422 6.07031V6.54688C24.2422 7.10417 24.2865 7.59896 24.375 8.03125C24.4688 8.45833 24.6068 8.82031 24.7891 9.11719C24.9766 9.41406 25.2057 9.63802 25.4766 9.78906C25.7526 9.9401 26.0729 10.0156 26.4375 10.0156C26.7865 10.0156 27.0964 9.9401 27.3672 9.78906C27.638 9.63802 27.8646 9.41406 28.0469 9.11719C28.2344 8.82031 28.375 8.45833 28.4688 8.03125C28.5677 7.59896 28.6172 7.10417 28.6172 6.54688Z" fill="url(#paint0_linear_1103_13373)"/>
<defs>
<linearGradient id="paint0_linear_1103_13373" x1="7.51585" y1="-2.33333" x2="10.9326" y2="-1.00231" gradientUnits="userSpaceOnUse">
<stop stop-color="#FF961B"/>
<stop offset="1" stop-color="#DA7600"/>
</linearGradient>
</defs>
</svg>
