<svg width="303" height="325" viewBox="0 0 303 325" fill="none" xmlns="http://www.w3.org/2000/svg">
<path d="M187.416 123.021V108.475C187.416 103.306 189.465 98.3484 193.113 94.6931C196.761 91.0379 201.709 88.9844 206.868 88.9844C212.027 88.9844 216.975 91.0379 220.623 94.6931C224.271 98.3484 226.32 103.306 226.32 108.475V123.021C226.32 123.715 226.044 124.38 225.554 124.871C225.064 125.362 224.4 125.638 223.708 125.639H190.029C189.336 125.638 188.672 125.362 188.182 124.871C187.692 124.38 187.417 123.715 187.416 123.021Z" fill="#242424"/>
<path d="M235.632 312.313L228.771 314.215L218.182 288.605L228.308 285.797L235.632 312.313Z" fill="#F6D4D4"/>
<path d="M223.327 313.61L236.559 309.941L238.865 318.288L217.302 324.268C216.999 323.171 216.915 322.026 217.054 320.897C217.193 319.768 217.552 318.678 218.112 317.688C218.671 316.699 219.42 315.829 220.315 315.129C221.209 314.429 222.233 313.913 223.327 313.61Z" fill="#242424"/>
<path d="M164.104 317.601H156.985L153.598 290.088H164.105L164.104 317.601Z" fill="#F6D4D4"/>
<path d="M151.898 315.562H165.627V324.224H143.254C143.254 323.087 143.477 321.96 143.912 320.909C144.346 319.859 144.983 318.904 145.786 318.099C146.588 317.295 147.541 316.657 148.59 316.222C149.639 315.787 150.763 315.562 151.898 315.562Z" fill="#242424"/>
<path d="M155.518 163.838C156.026 164.526 156.678 165.093 157.429 165.5C158.18 165.907 159.01 166.145 159.862 166.196C160.714 166.247 161.567 166.11 162.361 165.795C163.154 165.48 163.869 164.994 164.455 164.372L183.379 172.9L181.658 162.235L163.951 155.771C162.843 154.854 161.438 154.376 160.002 154.428C158.566 154.479 157.198 155.057 156.159 156.051C155.119 157.046 154.48 158.388 154.362 159.823C154.244 161.258 154.655 162.687 155.518 163.838Z" fill="#F6D4D4"/>
<path d="M194.837 227.978C188.891 227.978 182.736 227.09 177.563 224.451C174.817 223.078 172.383 221.151 170.414 218.792C168.444 216.433 166.982 213.692 166.119 210.74C163.423 202.188 166.822 193.786 170.109 185.661C172.145 180.626 174.069 175.871 174.568 171.183L174.743 169.519C175.52 162.044 176.192 155.588 179.909 153.167C181.836 151.912 184.426 151.84 187.83 152.948L219.792 163.351L218.617 224.146L218.423 224.211C218.255 224.267 206.988 227.978 194.837 227.978Z" fill="#242424"/>
<path d="M187.272 134.019C187.272 134.019 202.95 129.365 215.143 131.11C215.143 131.11 208.175 169.51 210.498 182.31C212.821 195.11 170.142 187.256 178.852 175.038L181.755 160.492C181.755 160.492 175.949 154.674 181.175 147.692L187.272 134.019Z" fill="#0036FF"/>
<path d="M179.561 226.825L160.238 223.195L166.984 171.176C167.438 169.724 177.888 136.766 182.634 134.982C186.08 133.766 189.604 132.785 193.183 132.046L193.87 131.908L189.996 137.731L174.571 174.767L179.561 226.825Z" fill="#242424"/>
<path d="M169.493 311.224L144.527 307.055L158.538 249.732L179.385 171.34L179.591 172.732C179.607 172.836 181.555 183.076 210.454 178.532L210.708 178.493L210.778 178.741L245.706 302.399L217.259 307.149L191.314 216.929L169.493 311.224Z" fill="#242424"/>
<path d="M204.094 236.56L204.109 236.12C204.127 235.631 205.844 187.03 205.271 167.484C204.695 147.872 211.032 130.887 211.096 130.718L211.148 130.582L211.288 130.541C219.486 128.194 226.599 135.199 226.67 135.27L226.77 135.37L224.435 154.673L234.432 224.864L204.094 236.56Z" fill="#242424"/>
<path d="M202.871 125.299C210.748 125.299 217.133 118.901 217.133 111.009C217.133 103.117 210.748 96.7188 202.871 96.7188C194.995 96.7188 188.609 103.117 188.609 111.009C188.609 118.901 194.995 125.299 202.871 125.299Z" fill="#F6D4D4"/>
<path d="M182.814 109.637C182.819 105.549 184.442 101.63 187.326 98.7397C190.211 95.8493 194.122 94.2234 198.202 94.2188H201.106C205.185 94.2234 209.096 95.8493 211.981 98.7397C214.866 101.63 216.488 105.549 216.493 109.637V109.928H210.357L208.265 104.056L207.846 109.928H204.675L203.619 106.965L203.408 109.928H182.814V109.637Z" fill="#242424"/>
<path d="M201.468 127.275C201.18 126.884 201.008 126.419 200.972 125.935C200.936 125.45 201.037 124.965 201.264 124.536C204.34 118.672 208.648 107.838 202.93 101.156L202.519 100.676H219.119V125.647L204.039 128.313C203.887 128.34 203.732 128.354 203.577 128.354C203.165 128.354 202.76 128.256 202.393 128.069C202.026 127.881 201.71 127.609 201.468 127.275Z" fill="#242424"/>
<path d="M134.634 24.1728C123.018 14.3519 108.804 8.12558 93.7213 6.25149C78.6385 4.37739 63.3372 6.93633 49.6794 13.6169C36.0215 20.2975 24.596 30.8117 16.7932 43.88C8.99034 56.9484 5.14656 72.0075 5.7296 87.2248C6.31264 102.442 11.2973 117.162 20.0772 129.592C28.857 142.023 41.0533 151.628 55.1821 157.24C69.311 162.852 84.763 164.228 99.658 161.2C114.553 158.173 128.249 150.873 139.079 140.189L235.247 221.497C236.711 222.736 238.605 223.343 240.515 223.182C242.424 223.022 244.192 222.108 245.429 220.642C246.666 219.176 247.271 217.278 247.111 215.364C246.951 213.451 246.039 211.68 244.576 210.441L244.566 210.432L148.397 129.124C159.569 113.058 164.35 93.3911 161.804 73.977C159.258 54.5629 149.569 36.8013 134.634 24.1728ZM128.434 121.294C120.942 130.191 110.986 136.662 99.8235 139.888C88.6613 143.115 76.7949 142.952 65.7248 139.422C54.6548 135.891 44.8782 129.15 37.6316 120.052C30.3849 110.953 25.9936 99.9064 25.0128 88.3075C24.0321 76.7085 26.5061 65.0787 32.1219 54.8886C37.7377 44.6985 46.2431 36.4058 56.5626 31.0592C66.8821 25.7126 78.5521 23.5523 90.0969 24.8514C101.642 26.1504 112.543 30.8506 121.422 38.3574C127.317 43.3418 132.175 49.4408 135.718 56.3063C139.261 63.1718 141.42 70.6693 142.071 78.3707C142.722 86.0721 141.853 93.8266 139.513 101.191C137.173 108.556 133.409 115.387 128.434 121.294Z" fill="#242424"/>
<path d="M45.6626 128.32C34.3942 118.792 27.1139 105.366 25.2674 90.7089C23.4209 76.0514 27.1432 61.2341 35.6952 49.1992C34.5721 50.3325 33.4864 51.5194 32.438 52.7599C27.4635 58.667 23.6989 65.4979 21.3592 72.8628C19.0194 80.2277 18.1503 87.9822 18.8015 95.6836C19.4526 103.385 21.6113 110.882 25.1543 117.748C28.6972 124.613 33.555 130.713 39.4504 135.697C45.3458 140.681 52.1632 144.453 59.5134 146.798C66.8637 149.142 74.6028 150.013 82.2889 149.36C89.9751 148.708 97.4577 146.545 104.31 142.995C111.161 139.445 117.248 134.578 122.223 128.671C123.269 127.428 124.254 126.156 125.178 124.854C114.777 135.326 100.826 141.495 86.0953 142.137C71.3647 142.779 56.9319 137.847 45.6626 128.32Z" fill="#1D1C1C"/>
<path d="M207.451 188.82C208.28 189.023 209.144 189.042 209.981 188.874C210.818 188.707 211.608 188.357 212.296 187.851C212.984 187.344 213.552 186.693 213.962 185.942C214.371 185.192 214.611 184.36 214.665 183.507L234.659 177.946L226.532 170.846L208.791 177.215C207.354 177.219 205.968 177.751 204.896 178.711C203.825 179.67 203.142 180.991 202.976 182.421C202.811 183.852 203.176 185.293 204 186.472C204.825 187.652 206.053 188.487 207.451 188.82Z" fill="#F6D4D4"/>
<path d="M215.76 185.877L214.543 174.296L231.244 165.063L220.355 151.855L222.132 137.019L226.557 135.119L226.694 135.296C228.781 137.984 247.079 161.642 247.079 164.566C247.079 167.57 243.578 176.39 238.789 178.79C234.169 181.104 216.822 185.603 216.086 185.793L215.76 185.877Z" fill="#242424"/>
</svg>
