<svg width="81" height="73" viewBox="0 0 81 73" fill="none" xmlns="http://www.w3.org/2000/svg">
<path fill-rule="evenodd" clip-rule="evenodd" d="M63.9663 15.9838V15.9838C62.4138 15.9838 61.007 15.089 60.3452 13.6905C59.1506 11.1599 57.6315 7.92588 56.7324 6.16528C55.4047 3.54728 53.2529 2.02393 50.2728 2.00312C50.2228 1.99896 30.7772 1.99896 30.7272 2.00312C27.7471 2.02393 25.5995 3.54728 24.2676 6.16528C23.3727 7.92588 21.8535 11.1599 20.659 13.6905C19.9972 15.089 18.5862 15.9838 17.0379 15.9838V15.9838C8.73022 15.9838 2 22.714 2 31.0176V55.7242C2 64.0235 8.73022 70.7579 17.0379 70.7579H63.9663C72.2698 70.7579 79 64.0235 79 55.7242V31.0176C79 22.714 72.2698 15.9838 63.9663 15.9838Z" stroke="#242424" stroke-width="4" stroke-linecap="round" stroke-linejoin="round"/>
<path fill-rule="evenodd" clip-rule="evenodd" d="M27.27 41.8905C27.2658 49.1868 33.2218 55.1553 40.5056 55.1511C47.7769 55.1428 53.7163 49.1992 53.7288 41.9196C53.7413 34.6109 47.8061 28.6548 40.514 28.6465C33.1802 28.6382 27.2117 34.6941 27.27 41.8905Z" stroke="#242424" stroke-width="4" stroke-linecap="round" stroke-linejoin="round"/>
<path d="M61.0181 30.9989C60.7282 30.9692 60.442 30.8936 60.1213 30.7645C59.7647 30.6061 59.4559 30.4045 59.1574 30.1012C58.6211 29.5308 58.3105 28.7847 58.3105 28.0151C58.3105 27.6063 58.3941 27.2011 58.5574 26.8341C58.7209 26.4622 58.9147 26.1485 59.2651 25.8073C59.5316 25.5752 59.8046 25.3885 60.1778 25.2241C61.2845 24.7855 62.6009 25.0476 63.4235 25.8699C63.6701 26.1128 63.8778 26.406 63.993 26.6532L64.0613 26.8285C64.227 27.2011 64.3105 27.6063 64.3105 28.0151C64.3105 28.8003 64.004 29.5265 63.435 30.131C62.9431 30.6261 62.2972 30.9306 61.6082 30.999L61.3105 31.0137L61.0181 30.9989Z" fill="#242424"/>
</svg>
