<svg width="60" height="60" viewBox="0 0 60 60" fill="none" xmlns="http://www.w3.org/2000/svg">
<rect width="60" height="60" rx="7" fill="#FAFAFA"/>
<path fill-rule="evenodd" clip-rule="evenodd" d="M30.9385 26.7419C33.4752 24.7179 36.3009 23.0407 38.9826 21.9712L38.9826 21.9712C41.7976 20.8487 44.2816 20.4645 46.0159 20.8835C47.7505 21.3025 48.6294 22.4991 48.5045 24.2715V24.2716C48.3796 26.044 47.2589 28.284 45.3308 30.6141V30.6141C43.4027 32.9442 40.7853 35.2219 37.9198 37.0633C35.0542 38.9048 32.1156 40.1974 29.5991 40.7234H29.5991C27.0827 41.2494 25.1423 40.9766 24.1049 39.951C23.1424 38.9994 23.0119 37.4538 23.7227 35.5451C23.7781 35.3966 23.8385 35.2458 23.904 35.093V35.093V35.0929H23.9039V35.093C23.8384 35.2458 23.778 35.3965 23.7227 35.5451C23.0117 37.4538 23.1423 38.9995 24.1048 39.9511C25.1422 40.9767 27.0826 41.2495 29.5991 40.7235H29.5992C32.1156 40.1975 35.0542 38.9048 37.9198 37.0634C40.7854 35.2219 43.4027 32.9443 45.3308 30.6142V30.6141C47.2589 28.2841 48.3799 26.044 48.5045 24.2716V24.2715C48.6294 22.499 47.7505 21.3024 46.0162 20.8834L46.0159 20.8834C44.2816 20.4644 41.7975 20.8486 38.9826 21.9712L38.9825 21.9712C36.3009 23.0406 33.4751 24.7178 30.9384 26.7418C30.8124 26.8425 30.687 26.9439 30.5624 27.0462L30.5623 27.0463V27.0463C30.6869 26.944 30.8124 26.8425 30.9385 26.7419ZM30.2554 26.6724C32.9207 24.4846 35.9369 22.665 38.8034 21.5219C41.6532 20.3854 44.2508 19.9593 46.1297 20.4132C47.0815 20.6432 47.8446 21.099 48.3474 21.7836C48.8504 22.4684 49.0556 23.3313 48.987 24.3055C48.8519 26.2275 47.6555 28.5636 45.7034 30.9225C43.7399 33.2955 41.0836 35.6052 38.1813 37.4703C35.2812 39.3339 32.2877 40.6557 29.698 41.197C27.1423 41.7312 24.9833 41.4999 23.7647 40.2951C22.5114 39.056 22.5252 37.0814 23.4593 34.9024C23.5119 34.7797 23.6137 34.6826 23.7422 34.637C24.1617 34.4883 24.5056 34.9174 24.3486 35.2836C23.4678 37.3381 23.6235 38.7949 24.445 39.607C25.3011 40.4535 27.0231 40.7677 29.5002 40.25C31.9434 39.7393 34.8271 38.4757 37.6583 36.6564C40.4872 34.8385 43.0656 32.5929 44.9582 30.3057C46.8623 28.0045 47.9076 25.8605 48.022 24.2376C48.0783 23.4393 47.9065 22.8177 47.5676 22.3563C47.2287 21.8948 46.6849 21.5427 45.9025 21.3537C44.3124 20.9696 41.942 21.3118 39.1617 22.4205C36.3983 23.5226 33.467 25.2878 30.8692 27.4202C30.7031 27.5565 30.4624 27.5691 30.2816 27.4403C30.0223 27.2556 30.0089 26.8747 30.2554 26.6724Z" fill="#242424"/>
<path d="M23.3514 22.4989C24.2714 22.4989 25.0171 21.7532 25.0171 20.8333C25.0171 19.9133 24.2714 19.1676 23.3514 19.1676C22.4315 19.1676 21.6858 19.9133 21.6858 20.8333C21.6858 21.7532 22.4315 22.4989 23.3514 22.4989Z" fill="#00398E"/>
<path d="M27.7801 25.1405C28.2961 25.1405 28.7145 24.7222 28.7145 24.2061C28.7145 23.6901 28.2961 23.2717 27.7801 23.2717C27.264 23.2717 26.8457 23.6901 26.8457 24.2061C26.8457 24.7222 27.264 25.1405 27.7801 25.1405Z" fill="#2469CF"/>
<path d="M24.4059 28.2491C24.4059 27.9798 24.6242 27.7615 24.8934 27.7615C25.1627 27.7615 25.3809 27.9798 25.3809 28.2491V33.4491C25.3809 33.7184 25.1627 33.9367 24.8934 33.9367C24.6242 33.9367 24.4059 33.7184 24.4059 33.4491V28.2491Z" fill="#242424"/>
<path d="M24.8934 33.9366C24.6242 33.9366 24.4059 33.7183 24.4059 33.4491C24.4059 33.1798 24.6242 32.9615 24.8934 32.9615H32.5311C32.8003 32.9615 33.0186 33.1798 33.0186 33.4491C33.0186 33.7183 32.8003 33.9366 32.5311 33.9366H24.8934Z" fill="#242424"/>
<path d="M37.2442 28.249C37.2442 27.9798 37.0259 27.7615 36.7567 27.7615C36.4874 27.7615 36.2692 27.9798 36.2692 28.249V33.4491C36.2692 33.7184 36.4874 33.9367 36.7567 33.9367C37.0259 33.9367 37.2442 33.7184 37.2442 33.4491V28.249Z" fill="#242424"/>
<path d="M44.8818 28.249C44.8818 27.9798 44.6635 27.7615 44.3943 27.7615C44.125 27.7615 43.9067 27.9798 43.9067 28.249V28.9803C43.9067 29.2496 44.125 29.4678 44.3943 29.4678C44.6635 29.4678 44.8818 29.2496 44.8818 28.9803V28.249Z" fill="#242424"/>
<path d="M36.7567 27.7614C36.4874 27.7614 36.2692 27.9797 36.2692 28.2489C36.2692 28.5182 36.4874 28.7365 36.7567 28.7365H44.3943C44.6636 28.7365 44.8818 28.5182 44.8818 28.2489C44.8818 27.9797 44.6636 27.7614 44.3943 27.7614H36.7567Z" fill="#242424"/>
<path d="M36.7567 32.9616C36.4874 32.9616 36.2692 33.1799 36.2692 33.4491C36.2692 33.7184 36.4874 33.9366 36.7567 33.9366H39.6817C39.951 33.9366 40.1692 33.7184 40.1692 33.4491C40.1692 33.1799 39.951 32.9616 39.6817 32.9616H36.7567Z" fill="#242424"/>
<path d="M12.5435 28.2491C12.5435 27.9798 12.7617 27.7615 13.031 27.7615C13.3002 27.7615 13.5185 27.9798 13.5185 28.2491V33.4491C13.5185 33.7184 13.3002 33.9367 13.031 33.9367C12.7617 33.9367 12.5435 33.7184 12.5435 33.4491V28.2491Z" fill="#242424"/>
<path d="M13.031 33.9366C12.7617 33.9366 12.5435 33.7184 12.5435 33.4491C12.5435 33.1799 12.7617 32.9616 13.031 32.9616H20.6686C20.9379 32.9616 21.1561 33.1799 21.1561 33.4491C21.1561 33.7184 20.9379 33.9366 20.6686 33.9366H13.031Z" fill="#242424"/>
<path d="M13.031 28.7365C12.7617 28.7365 12.5435 28.5183 12.5435 28.2491C12.5435 27.9798 12.7617 27.7615 13.031 27.7615H20.6686C20.9379 27.7615 21.1561 27.9798 21.1561 28.2491C21.1561 28.5183 20.9379 28.7365 20.6686 28.7365H13.031Z" fill="#242424"/>
<path d="M17.9877 31.9054C17.7185 31.9054 17.5002 31.6871 17.5002 31.4178C17.5002 31.1486 17.7185 30.9304 17.9877 30.9304H20.669C20.9383 30.9304 21.1566 31.1486 21.1566 31.4178C21.1566 31.6871 20.9383 31.9054 20.669 31.9054H17.9877Z" fill="#242424"/>
<path d="M20.1812 31.4178C20.1812 31.1486 20.3994 30.9303 20.6687 30.9303C20.9379 30.9303 21.1562 31.1486 21.1562 31.4178V33.4491C21.1562 33.7183 20.9379 33.9366 20.6687 33.9366C20.3994 33.9366 20.1812 33.7183 20.1812 33.4491V31.4178Z" fill="#242424"/>
<path d="M20.1812 28.2491C20.1812 27.9798 20.3994 27.7615 20.6687 27.7615C20.9379 27.7615 21.1562 27.9798 21.1562 28.2491V29.3866C21.1562 29.6558 20.9379 29.8741 20.6687 29.8741C20.3994 29.8741 20.1812 29.6558 20.1812 29.3866V28.2491Z" fill="#242424"/>
</svg>
