<svg xmlns="http://www.w3.org/2000/svg" width="28" height="28" viewBox="0 0 28 28" fill="none">
<path d="M26.5988 9.28797C26.4886 7.84503 25.3873 5.99509 24.2859 5.1071C23.0473 4.19834 21.7604 3.3585 20.431 2.59122C19.1116 1.8031 17.7513 1.08677 16.3558 0.445256C15.6105 0.138812 14.8111 -0.0122094 14.0062 0.00130061C13.201 -0.0157716 12.401 0.135389 11.6565 0.445256C10.2614 1.08723 8.90104 1.80349 7.58138 2.59122C5.45206 3.88614 3.72656 5.1071 3.72656 5.1071C2.8339 5.85999 2.15452 6.82583 1.74346 7.90671C1.65106 8.14961 1.83773 8.3999 2.09758 8.3999H3.67779C3.96674 8.3999 4.22815 8.23719 4.38347 7.99343C4.68937 7.51339 5.06893 7.079 5.5121 6.70784C5.5121 6.70784 6.93684 5.70661 8.695 4.64471C9.78459 3.99884 10.9078 3.41147 12.0597 2.88507C12.6744 2.63097 13.335 2.50707 13.9998 2.52099C14.6644 2.50994 15.3244 2.63377 15.9398 2.88507C17.092 3.41108 18.2152 3.99846 19.3047 4.64471C20.4023 5.27393 21.4649 5.96266 22.4876 6.70784C23.3969 7.43592 24.3063 8.9529 24.3972 10.1361C24.3972 10.1361 24.6095 11.8958 24.6398 13.9801C24.6379 15.2673 24.5671 16.5535 24.4276 17.8332C24.2161 19.173 23.5269 20.3909 22.4876 21.2615C22.4876 21.2615 21.0628 22.293 19.3047 23.3549C18.2151 24.0007 17.0919 24.5882 15.9398 25.1145C15.3252 25.3686 14.6647 25.4926 13.9998 25.4786C13.3358 25.4926 12.6759 25.3718 12.0597 25.1236C10.9076 24.5976 9.78444 24.0102 8.695 23.364C6.93684 22.3325 5.5121 21.2706 5.5121 21.2706C5.12446 20.9602 4.73674 20.5063 4.41007 19.9962C4.25685 19.7568 3.99832 19.5997 3.71412 19.5997H2.10707C1.84387 19.5997 1.65759 19.8557 1.75808 20.099C2.20414 21.1797 2.96535 22.2529 3.72656 22.8666C3.72656 22.8666 5.45206 24.1616 7.58138 25.4195C8.9008 26.2076 10.2611 26.924 11.6565 27.5654C12.4027 27.8681 13.202 28.0154 14.0062 27.9983C14.8114 28.0154 15.6114 27.8642 16.3558 27.5543C17.7511 26.9124 19.1113 26.1961 20.431 25.4084C22.5604 24.1134 24.2859 22.8555 24.2859 22.8555C25.5446 21.7938 26.3793 20.3086 26.6355 18.6746C26.8045 17.114 26.8903 15.5456 26.8925 13.9758C26.8558 11.4339 26.5988 9.28797 26.5988 9.28797Z" fill="url(#paint0_linear_403_39535)"/>
<path d="M1.11987 10.9218C1.11987 10.6125 1.37063 10.3618 1.67987 10.3618H10.3599C10.6691 10.3618 10.9199 10.6125 10.9199 10.9218V12.6017C10.9199 12.9111 10.6691 13.1617 10.3599 13.1617H1.11987V10.9218Z" fill="#0066B3"/>
<path d="M1.11975 14.8416H18.7597C19.0689 14.8416 19.3197 15.0923 19.3197 15.4016V17.0816C19.3197 17.3908 19.0689 17.6416 18.7597 17.6416H1.67975C1.37051 17.6416 1.11975 17.3908 1.11975 17.0816V14.8416Z" fill="#EE2F53"/>
<defs>
<linearGradient id="paint0_linear_403_39535" x1="14.2339" y1="-2.16154e-05" x2="14.2339" y2="27.9997" gradientUnits="userSpaceOnUse">
<stop stop-color="#0066B3"/>
<stop offset="0.354167" stop-color="#0066B3"/>
<stop offset="0.6875" stop-color="#EE2F53"/>
<stop offset="1" stop-color="#EE2F53"/>
</linearGradient>
</defs>
</svg>