<svg xmlns="http://www.w3.org/2000/svg" width="28" height="28" viewBox="0 0 28 28" fill="none">
  <path d="M14 27.9715C21.7163 27.9715 27.9715 21.7163 27.9715 14C27.9715 6.28381 21.7163 0.0285645 14 0.0285645C6.28381 0.0285645 0.0285645 6.28381 0.0285645 14C0.0285645 21.7163 6.28381 27.9715 14 27.9715Z" fill="#FC3F1D"/>
  <path d="M19.0555 22.7708H15.9885V7.6015H14.6222C12.1177 7.6015 10.8059 8.85372 10.8059 10.723C10.8059 12.8437 11.7107 13.8263 13.5826 15.0785L15.1252 16.1182L10.6918 22.7682H7.39404L11.384 16.8311C9.0896 15.1926 7.79849 13.593 7.79849 10.8941C7.79849 7.52113 10.15 5.22668 14.6014 5.22668H19.0348V22.7656H19.0555V22.7708Z" fill="white"/>
</svg>