<svg xmlns="http://www.w3.org/2000/svg" width="327" height="331" viewBox="0 0 327 331" fill="none">
  <path d="M291.449 263.927C296.092 258.002 300.327 251.767 304.123 245.265L214.75 230.541L311.485 231.259C320.767 211.068 325.83 189.196 326.366 166.981C326.902 144.766 322.899 122.675 314.602 102.06L184.748 169.387L304.431 81.4092C293.196 62.0707 278.104 45.2501 260.092 31.9932C242.08 18.7362 221.533 9.32636 199.729 4.3487C177.926 -0.628965 155.331 -1.06804 133.35 3.05883C111.369 7.1857 90.4727 15.7903 71.9592 28.3375C53.4457 40.8847 37.7114 57.1063 25.7344 75.9937C13.7574 94.8811 5.79392 116.03 2.33908 138.127C-1.11577 160.223 0.0118939 182.794 5.65195 204.436C11.292 226.078 21.3239 246.328 35.1238 263.927C27.8739 273.139 21.6441 283.109 16.5438 293.664L132.72 353.936L8.91498 312.387C0.230309 338.083 -1.9138 365.538 2.6765 392.271C7.2668 419.003 18.4468 444.17 35.2058 465.497C16.2915 489.55 4.52668 518.439 1.25627 548.862C-2.01413 579.285 3.34186 610.015 16.712 637.538C30.0821 665.061 50.9267 688.266 76.8629 704.501C102.799 720.736 132.78 729.346 163.379 729.346C193.977 729.346 223.958 720.736 249.895 704.501C275.831 688.266 296.675 665.061 310.046 637.538C323.416 610.015 328.772 579.285 325.501 548.862C322.231 518.439 310.466 489.55 291.552 465.497C314.149 436.755 326.434 401.254 326.434 364.692C326.434 328.13 314.149 292.629 291.552 263.886L291.449 263.927Z" fill="#0036FF"/>
</svg>