<svg width="398" height="378" viewBox="0 0 398 378" fill="none" xmlns="http://www.w3.org/2000/svg">
              <path opacity="0.5" d="M150.39 55.0091C145.427 48.2621 135.173 55.5834 139.808 62.5765C141.018 64.4017 142.351 66.1653 143.602 67.8675C158.88 88.3751 166.796 113.538 173.625 138.311C175.286 144.464 176.906 150.862 174.999 156.768C177.727 140.69 175.963 124.079 171.841 108.288C167.719 92.4972 161.3 77.5061 154.676 62.597C153.517 59.9244 152.081 57.3812 150.39 55.0091Z" fill="#0036FF"/>
              <path d="M51.235 98.4034C40.9812 98.0958 39.6277 113.723 49.8815 114.543C52.568 114.769 55.2955 114.83 57.8795 114.892C89.4408 115.753 119.3 127.196 147.99 139.501C155.024 142.515 162.346 145.899 166.447 152.359C153.507 137.368 136.485 126.396 118.377 118.316C100.269 110.236 80.9711 104.945 61.6939 100.003C58.2747 99.0982 54.7684 98.5619 51.235 98.4034Z" fill="#0036FF"/>
              <path opacity="0.2" d="M54.0855 136.753C47.5641 136.999 49.0406 146.248 55.6031 146.309C57.3052 146.309 59.0279 146.309 60.648 146.166C80.5609 145.366 100.966 150.862 120.735 156.912C125.596 158.388 130.723 160.07 134.25 163.7C123.75 155.592 111.849 149.482 99.1409 145.674C86.6172 141.957 73.8421 139.147 60.9146 137.265C58.6608 136.869 56.3732 136.697 54.0855 136.753Z" fill="#0036FF"/>
              <path opacity="0.5" d="M187.303 308.832C189.149 315.087 197.762 311.355 196.183 304.997C195.773 303.336 195.26 301.696 194.788 300.137C189.067 281.045 189.333 259.922 190.277 239.27C190.523 234.185 190.871 228.811 193.517 224.484C188.267 236.67 185.305 249.719 184.781 262.977C184.269 276.028 184.714 289.099 186.114 302.085C186.285 304.368 186.683 306.629 187.303 308.832Z" fill="#0036FF"/>
              <path opacity="0.2" d="M115.081 46.3345C111.164 45.6577 110.877 51.3588 114.774 52.2407C115.799 52.4663 116.824 52.6303 117.809 52.7944C129.806 54.8451 141.29 60.7103 152.344 66.8421C155.19 68.1365 157.665 70.1251 159.542 72.6253C154.301 66.4435 147.969 61.2785 140.859 57.3881C133.86 53.5681 126.587 50.271 119.101 47.5239C117.805 46.992 116.458 46.5935 115.081 46.3345Z" fill="#0036FF"/>
              <path d="M5.44138 197.62C-4.50484 202.747 3.9033 216.795 14.1161 212.139C16.7821 210.909 19.3866 209.535 21.8885 208.243C52.2604 192.493 87.513 186.689 122.376 182.219C130.887 181.132 139.972 180.168 147.847 183.531C126.375 177.481 103.489 176.969 81.3813 179.553C59.274 182.137 37.7615 187.653 16.4745 193.498C12.6682 194.499 8.97196 195.88 5.44138 197.62Z" fill="#0036FF"/>
              <path opacity="0.5" d="M33.8447 252.314C26.7081 258.979 37.9463 266.854 45.3495 260.517C47.4003 258.856 49.1845 257.092 50.9686 255.41C72.7478 234.903 101.52 220.424 130.169 207.012C137.203 203.71 166.16 200.368 173.871 200.552C153.692 202.357 112.471 208.755 94.1373 216.958C76.1631 225.509 58.7876 235.266 42.1298 246.161C39.1801 247.946 36.4061 250.006 33.8447 252.314Z" fill="#0036FF"/>
              <path d="M84.8268 339.595C82.776 349.131 96.3726 349.274 98.9155 339.738C99.5718 337.257 100.105 334.735 100.618 332.335C106.914 303.153 122.315 274.811 138.27 247.495C142.187 240.789 164.089 221.573 170.549 217.328C154.963 230.289 124.632 258.918 114.296 276.185C104.366 293.438 95.6097 311.341 88.0875 329.772C86.7012 332.939 85.6097 336.227 84.8268 339.595Z" fill="#0036FF"/>
              <path d="M187.426 4.49897C182.546 -5.42675 168.641 2.73531 173.071 12.9071C174.219 15.5731 175.511 18.1776 176.742 20.659C191.733 50.9899 196.88 86.0375 200.736 120.511C201.679 128.96 202.5 137.983 199.054 145.756C205.33 124.53 206.17 101.869 203.997 79.9262C201.823 57.983 196.716 36.5935 191.302 15.4091C190.377 11.6523 189.079 7.99748 187.426 4.49897Z" fill="#0036FF"/>
              <path d="M159.029 21.3769C159.283 21.5324 159.572 21.6239 159.87 21.6435C160.423 21.6435 160.792 21.0898 161.018 20.5976C162.228 17.9521 161.531 14.4453 163.417 12.3945C165.298 14.6386 166.826 17.1557 167.95 19.8593L175.086 17.8086C175.429 19.1962 175.485 20.639 175.252 22.0492C175.02 23.4594 174.503 24.8075 173.733 26.0116C174.991 26.5541 176.133 27.3339 177.096 28.3085C177.58 28.7926 177.92 29.4025 178.075 30.0693C178.231 30.7362 178.197 31.4333 177.978 32.0819C176.328 32.4817 174.629 32.6474 172.933 32.5741C173.197 35.7144 173.018 38.8763 172.4 41.9666C172.383 42.1961 172.32 42.4199 172.214 42.6243C172.108 42.8288 171.962 43.0097 171.784 43.156C171.272 43.4842 170.575 43.156 170.041 42.8689C167.58 41.369 165.557 39.247 164.176 36.7166L161.51 43.0535C161.323 43.7085 160.908 44.2755 160.341 44.6531C159.935 44.794 159.494 44.7937 159.088 44.6522C158.682 44.5108 158.336 44.2365 158.106 43.8738C157.659 43.1475 157.391 42.3249 157.327 41.4744L156.322 35.4451C156.31 35.1298 156.195 34.8271 155.994 34.5838C155.694 34.357 155.322 34.2476 154.948 34.2762C152.418 34.2762 149.896 34.2762 147.38 34.2762C146.95 32.9227 148.283 31.6923 149.575 31.118C150.867 30.5438 152.384 30.1337 153.04 28.8827C154.353 26.3192 150.99 22.7304 152.405 20.5771C154.086 17.8086 156.834 20.29 159.029 21.3769Z" fill="#0036FF"/>
              <path opacity="0.5" d="M247.739 55.0091C252.702 48.2621 262.956 55.5834 258.321 62.5765C257.111 64.4017 255.778 66.1653 254.527 67.8675C239.249 88.3751 231.313 113.538 224.504 138.311C222.822 144.464 221.202 150.862 223.109 156.768C220.382 140.69 222.166 124.079 226.288 108.288C230.41 92.4972 236.829 77.4035 243.453 62.4944C244.618 59.8574 246.055 57.3488 247.739 55.0091Z" fill="#0036FF"/>
              <path d="M346.874 98.4034C357.128 98.0958 358.502 113.723 348.227 114.543C345.541 114.769 342.834 114.83 340.25 114.892C308.668 115.753 278.829 127.196 250.139 139.501C243.105 142.515 235.784 145.899 231.682 152.359C244.602 137.368 261.623 126.396 279.752 118.316C297.881 110.236 317.158 104.966 336.353 100.023C339.792 99.1074 343.319 98.5642 346.874 98.4034Z" fill="#0036FF"/>
              <path opacity="0.5" d="M344.044 136.753C350.545 136.999 349.089 146.248 342.527 146.309C340.824 146.309 339.102 146.309 337.461 146.166C317.548 145.366 297.164 150.862 277.394 156.912C272.534 158.388 267.407 160.07 263.88 163.7C274.38 155.592 286.281 149.482 298.989 145.674C311.512 141.954 324.287 139.144 337.215 137.265C339.469 136.869 341.756 136.697 344.044 136.753Z" fill="#0036FF"/>
              <path opacity="0.2" d="M381.311 46.3345C385.249 45.6577 385.536 51.3588 381.64 52.2407C380.614 52.4663 379.589 52.6303 378.584 52.7944C366.587 54.8451 355.123 60.7103 344.07 66.8421C341.224 68.1365 338.748 70.1251 336.871 72.6253C342.107 66.4392 348.441 61.2734 355.554 57.3881C362.547 53.5682 369.812 50.2711 377.292 47.5239C378.59 46.9974 379.936 46.599 381.311 46.3345Z" fill="#0036FF"/>
              <path opacity="0.2" d="M230.164 320.666C229.282 324.562 223.889 322.716 224.607 318.615C224.791 317.569 225.017 316.564 225.242 315.58C227.99 303.726 226.986 290.868 225.612 278.317C225.506 275.191 224.626 272.139 223.048 269.438C226.737 276.675 229.059 284.531 229.898 292.611C230.72 300.547 230.96 308.532 230.615 316.503C230.601 317.902 230.45 319.296 230.164 320.666Z" fill="#0036FF"/>
              <path opacity="0.5" d="M329.668 294.887C332.723 300.076 325.218 299.707 321.916 294.518C321.034 293.165 320.255 291.811 319.476 290.417C310.165 274.564 295.974 258.876 281.7 243.721C278.313 239.788 274.359 236.381 269.97 233.61C281.153 241.209 291.469 250.011 300.731 259.86C309.898 269.458 317.999 279.445 325.935 289.432C327.303 291.163 328.55 292.986 329.668 294.887Z" fill="#0036FF"/>
              <path opacity="0.2" d="M57.3669 294.887C54.3112 300.076 61.8375 299.707 65.1392 294.518C66.0006 293.165 66.8004 291.811 67.5591 290.417C76.8696 274.564 91.0609 258.876 105.355 243.721C108.735 239.788 112.682 236.381 117.065 233.61C105.89 241.219 95.5752 250.021 86.3031 259.86C77.1362 269.458 69.0357 279.445 61.1197 289.432C59.7455 291.163 58.4917 292.985 57.3669 294.887Z" fill="#0036FF"/>
              <path opacity="0.2" d="M156.952 320.666C157.834 324.562 163.207 322.716 162.51 318.615C162.325 317.569 162.079 316.564 161.853 315.58C159.126 303.726 160.11 290.868 161.505 278.317C161.612 275.194 162.485 272.144 164.048 269.438C160.358 276.675 158.036 284.531 157.198 292.611C156.369 300.546 156.122 308.531 156.46 316.503C156.488 317.903 156.653 319.297 156.952 320.666Z" fill="#0036FF"/>
              <path opacity="0.2" d="M300.752 85.2995C304.669 84.6022 304.956 90.3238 301.059 91.1852C300.034 91.4108 299.009 91.5953 298.024 91.7594C286.027 93.8102 274.543 99.6754 263.489 105.787C260.652 107.094 258.18 109.08 256.291 111.57C261.532 105.394 267.865 100.236 274.974 96.3531C281.977 92.5349 289.249 89.2312 296.732 86.4684C298.029 85.9427 299.376 85.551 300.752 85.2995Z" fill="#0036FF"/>
              <path opacity="0.2" d="M313.349 8.8054C316.732 6.75463 319.132 11.9021 315.851 14.1579C314.969 14.7526 314.087 15.3063 313.226 15.819C302.869 22.1969 294.42 31.938 286.463 41.7407C284.314 44.0148 282.758 46.7826 281.931 49.8002C284.491 42.1133 288.439 34.9609 293.579 28.6978C298.617 22.5411 304.101 16.7629 309.985 11.4099C311.021 10.4367 312.147 9.56457 313.349 8.8054Z" fill="#0036FF"/>
              <path d="M392.688 197.62C402.634 202.747 394.226 216.795 384.013 212.139C381.347 210.909 378.722 209.535 376.241 208.243C345.848 192.493 310.616 186.689 275.753 182.219C267.243 181.132 258.158 180.168 250.283 183.531C271.754 177.481 294.62 176.969 316.748 179.553C338.876 182.137 360.347 187.653 381.655 193.498C385.46 194.503 389.156 195.884 392.688 197.62Z" fill="#0036FF"/>
              <path opacity="0.5" d="M364.325 252.314C371.462 258.979 360.224 266.854 352.821 260.517C350.77 258.856 348.986 257.092 347.202 255.41C325.361 234.882 296.65 220.342 267.939 206.93C260.905 203.628 231.948 200.286 224.217 200.47C244.417 202.275 285.638 208.673 303.971 216.876C321.946 225.427 339.321 235.184 355.979 246.079C358.953 247.887 361.748 249.974 364.325 252.314Z" fill="#0036FF"/>
              <path d="M280.08 350.484C280.962 360.205 267.406 358.687 266.094 348.864C265.745 346.321 265.54 343.757 265.314 341.317C262.73 311.56 250.959 281.517 238.654 252.416C235.599 245.28 216.28 223.459 210.395 218.456C224.237 233.262 250.733 265.459 258.834 283.896C266.528 302.253 272.975 321.108 278.132 340.333C279.095 343.649 279.747 347.047 280.08 350.484Z" fill="#0036FF"/>
              <path d="M337.364 21.3769C337.111 21.5355 336.822 21.6273 336.524 21.6435C335.99 21.6435 335.621 21.0898 335.396 20.5976C334.165 17.9521 334.862 14.4453 332.996 12.3945C331.116 14.6386 329.588 17.1557 328.464 19.8593L321.307 17.8086C320.969 19.1966 320.915 20.6385 321.148 22.048C321.38 23.4575 321.895 24.8056 322.66 26.0116C321.405 26.5589 320.264 27.3382 319.297 28.3085C318.82 28.7974 318.488 29.4083 318.336 30.074C318.184 30.7398 318.218 31.4346 318.436 32.0819C320.086 32.4817 321.784 32.6474 323.481 32.5741C323.206 35.7143 323.386 38.8776 324.014 41.9666C324.031 42.1961 324.094 42.4199 324.2 42.6243C324.305 42.8288 324.451 43.0097 324.629 43.156C325.142 43.4842 325.839 43.156 326.372 42.8689C328.823 41.355 330.842 39.2364 332.238 36.7166L334.903 43.0535C335.075 43.7161 335.493 44.2883 336.072 44.6531C336.478 44.794 336.92 44.7937 337.326 44.6522C337.731 44.5108 338.077 44.2365 338.308 43.8738C338.746 43.1434 339.013 42.3229 339.087 41.4744L340.092 35.4451C340.104 35.1298 340.219 34.8271 340.42 34.5838C340.719 34.357 341.091 34.2476 341.466 34.2762C343.995 34.2762 346.518 34.2762 349.033 34.2762C349.464 32.9227 348.131 31.6923 346.839 31.118C345.547 30.5438 344.009 30.1337 343.373 28.8827C342.061 26.3192 345.424 22.7304 344.009 20.5771C342.327 17.8086 339.641 20.29 337.364 21.3769Z" fill="#0036FF"/>
              <path opacity="0.2" d="M309.775 315.477C309.519 315.627 309.231 315.711 308.934 315.723C308.381 315.723 308.012 315.169 307.786 314.677C306.576 312.052 307.273 308.627 305.407 306.474C303.501 308.756 301.964 311.324 300.854 314.082L293.718 311.888C293.377 313.276 293.321 314.718 293.553 316.128C293.786 317.538 294.302 318.887 295.071 320.091C293.814 320.626 292.672 321.399 291.708 322.368C291.23 322.856 290.895 323.465 290.739 324.131C290.584 324.796 290.614 325.492 290.826 326.141C292.475 326.548 294.174 326.72 295.871 326.654C295.607 329.787 295.786 332.942 296.404 336.026C296.45 336.492 296.67 336.924 297.02 337.236C297.553 337.564 298.229 337.236 298.763 336.928C301.229 335.433 303.253 333.31 304.628 330.776L307.294 337.113C307.488 337.765 307.91 338.325 308.483 338.692C308.884 338.837 309.322 338.841 309.725 338.703C310.127 338.565 310.471 338.293 310.698 337.933C311.14 337.202 311.413 336.383 311.498 335.533L312.482 329.484C312.494 329.168 312.609 328.866 312.81 328.622C313.119 328.4 313.498 328.298 313.877 328.335C316.379 328.335 318.901 328.233 321.424 328.335C321.854 327.002 320.521 325.751 319.229 325.177C317.937 324.603 316.42 324.193 315.764 322.942C314.451 320.399 317.814 316.789 316.399 314.739C314.718 311.827 311.97 314.39 309.775 315.477Z" fill="#0036FF"/>
              <path d="M370.294 118.296C370.042 118.455 369.75 118.54 369.453 118.542C368.899 118.542 368.53 118.009 368.304 117.517C367.094 114.872 367.792 111.365 365.905 109.314C364.011 111.609 362.483 114.182 361.373 116.943L354.236 114.728C353.895 116.116 353.839 117.558 354.072 118.968C354.304 120.378 354.821 121.726 355.59 122.931C354.336 123.474 353.196 124.246 352.226 125.207C351.742 125.696 351.403 126.309 351.248 126.979C351.092 127.649 351.126 128.349 351.344 129.001C352.995 129.401 354.693 129.567 356.389 129.494C356.126 132.634 356.305 135.796 356.923 138.886C356.939 139.116 357.003 139.339 357.108 139.544C357.214 139.748 357.36 139.929 357.538 140.075C358.05 140.404 358.748 140.075 359.281 139.788C361.743 138.288 363.765 136.166 365.146 133.636L367.812 139.973C368 140.628 368.414 141.195 368.981 141.573C369.387 141.71 369.828 141.708 370.232 141.566C370.637 141.425 370.983 141.153 371.216 140.793C371.664 140.067 371.931 139.244 371.996 138.394L373.001 132.242C373.017 131.933 373.132 131.638 373.329 131.401C373.628 131.174 374 131.065 374.375 131.093C376.897 131.093 379.419 131.093 381.942 131.093C382.373 129.76 381.04 128.509 379.748 127.955C378.456 127.402 376.938 126.971 376.282 125.72C374.969 123.157 378.333 119.568 376.918 117.517C375.236 114.707 372.529 117.25 370.294 118.296Z" fill="#0036FF"/>
              <path d="M128.344 344.968C127.99 345.182 127.588 345.302 127.175 345.316C126.416 345.316 125.903 344.558 125.575 343.881C123.893 340.189 124.857 335.411 122.253 332.314C119.603 335.502 117.471 339.087 115.936 342.937L105.929 339.779C105.465 341.709 105.393 343.713 105.717 345.671C106.041 347.63 106.755 349.504 107.815 351.182C106.062 351.942 104.469 353.028 103.119 354.381C102.456 355.061 101.993 355.911 101.779 356.836C101.566 357.762 101.611 358.729 101.909 359.631C104.209 360.197 106.577 360.438 108.943 360.348C108.573 364.716 108.822 369.114 109.682 373.412C109.704 373.733 109.792 374.046 109.941 374.331C110.089 374.617 110.294 374.869 110.543 375.073C111.261 375.545 112.225 375.073 112.963 374.683C116.412 372.554 119.241 369.555 121.166 365.988L124.878 374.827C125.153 375.732 125.732 376.515 126.518 377.042C127.079 377.241 127.691 377.244 128.253 377.051C128.816 376.857 129.296 376.478 129.615 375.975C130.241 374.956 130.62 373.804 130.723 372.612L132.097 364.204C132.132 363.769 132.296 363.355 132.568 363.014C132.986 362.685 133.515 362.53 134.045 362.584C137.552 362.584 141.058 362.461 144.565 362.481C145.18 360.615 143.314 358.892 141.51 358.093C139.705 357.293 137.593 356.719 136.69 354.975C134.845 351.428 139.582 346.485 137.572 343.409C135.255 339.902 131.42 343.45 128.344 344.968Z" fill="#0036FF"/>
              <path d="M27.6919 124.223C27.332 124.439 26.9223 124.559 26.5024 124.571C25.7642 124.571 25.2309 123.812 24.9233 123.136C23.2212 119.444 24.2056 114.666 21.6011 111.569C18.9446 114.756 16.8061 118.341 15.2642 122.192L5.318 119.096C4.8454 121.024 4.76708 123.028 5.08776 124.987C5.40844 126.947 6.12152 128.821 7.18421 130.498C5.43718 131.259 3.8505 132.344 2.50846 133.697C1.84194 134.375 1.37464 135.224 1.15764 136.15C0.94064 137.076 0.982276 138.043 1.27799 138.947C3.57779 139.513 5.9454 139.755 8.31211 139.665C7.93867 144.033 8.19422 148.433 9.07091 152.728C9.04629 153.12 9.14691 153.509 9.3582 153.839C9.5695 154.169 9.88047 154.423 10.2461 154.565C10.6116 154.707 11.0129 154.728 11.3915 154.627C11.7702 154.525 12.1066 154.305 12.3521 154C15.8011 151.87 18.6299 148.872 20.5552 145.304L24.2466 154.143C24.5105 155.06 25.1015 155.848 25.9077 156.358C26.4686 156.554 27.0792 156.555 27.6409 156.362C28.2027 156.168 28.6829 155.791 29.0044 155.292C29.6271 154.272 29.9995 153.12 30.0913 151.928L31.4858 143.52C31.5063 143.086 31.6643 142.669 31.937 142.331C32.3576 142.008 32.8868 141.861 33.4135 141.921C36.9203 141.921 40.4271 141.777 43.9544 141.798C44.5492 139.931 42.683 138.209 40.8988 137.409C39.1146 136.609 36.9613 136.035 36.059 134.292C34.2338 130.744 38.9711 125.802 36.9613 122.726C34.5824 119.157 30.7475 122.705 27.6919 124.223Z" fill="#0036FF"/>
              <path opacity="0.2" d="M333.133 260.927C332.949 261.043 332.736 261.107 332.518 261.111C332.108 261.111 331.841 260.701 331.656 260.352C330.754 258.302 331.287 255.861 329.893 254.2C328.49 255.897 327.355 257.799 326.529 259.84L321.238 258.199C320.986 259.24 320.944 260.32 321.117 261.377C321.289 262.434 321.673 263.445 322.243 264.351C321.314 264.744 320.471 265.315 319.762 266.033C319.407 266.393 319.157 266.843 319.042 267.335C318.926 267.827 318.948 268.342 319.106 268.822C320.326 269.125 321.582 269.256 322.838 269.212C322.646 271.53 322.785 273.864 323.248 276.143C323.258 276.314 323.303 276.48 323.381 276.632C323.459 276.784 323.567 276.918 323.699 277.025C323.913 277.111 324.146 277.138 324.374 277.102C324.601 277.065 324.815 276.968 324.991 276.82C326.812 275.68 328.309 274.091 329.339 272.206L331.39 276.902C331.525 277.384 331.831 277.8 332.251 278.071C332.55 278.179 332.876 278.182 333.178 278.082C333.479 277.982 333.738 277.783 333.912 277.517C334.239 276.975 334.435 276.364 334.486 275.733L335.225 271.263C335.24 271.031 335.326 270.809 335.471 270.627C335.578 270.537 335.702 270.471 335.837 270.432C335.971 270.393 336.112 270.383 336.25 270.401H341.849C342.156 269.417 341.172 268.494 340.208 268.084C339.244 267.674 338.157 267.346 337.645 266.423C336.681 264.536 339.203 261.911 338.137 260.27C337.07 258.63 334.753 260.106 333.133 260.927Z" fill="#0036FF"/>
              <path opacity="0.2" d="M196.389 339.881C196.198 339.983 195.989 340.045 195.773 340.066C195.577 340.021 195.396 339.925 195.249 339.789C195.101 339.652 194.992 339.479 194.932 339.287C194.03 337.338 194.543 334.795 193.148 333.134C191.741 334.828 190.606 336.731 189.785 338.774L184.515 337.133C184.265 338.156 184.223 339.219 184.392 340.258C184.561 341.297 184.938 342.292 185.499 343.183C184.578 343.6 183.738 344.177 183.018 344.885C182.662 345.245 182.413 345.695 182.297 346.187C182.181 346.679 182.204 347.194 182.361 347.674C183.58 347.981 184.838 348.105 186.094 348.043C185.9 350.368 186.038 352.709 186.504 354.995C186.516 355.165 186.563 355.331 186.64 355.482C186.718 355.634 186.825 355.768 186.955 355.877C187.345 356.123 187.857 355.877 188.247 355.672C190.068 354.533 191.566 352.944 192.595 351.058L194.645 355.754C194.78 356.236 195.087 356.652 195.507 356.923C195.808 357.025 196.135 357.024 196.435 356.92C196.736 356.816 196.994 356.615 197.168 356.349C197.494 355.807 197.691 355.196 197.742 354.565L198.48 350.094C198.496 349.868 198.582 349.653 198.726 349.479C198.946 349.304 199.226 349.223 199.506 349.253C201.379 349.253 203.245 349.253 205.104 349.253C205.412 348.269 204.428 347.346 203.484 346.915C202.541 346.485 201.433 346.198 200.921 345.254C199.936 343.368 202.459 340.743 201.392 339.102C200.326 337.461 198.029 339.061 196.389 339.881Z" fill="#0036FF"/>
              <path opacity="0.5" d="M113.194 63.561C113.004 63.6651 112.795 63.728 112.579 63.7456C112.383 63.7007 112.202 63.6051 112.054 63.4683C111.907 63.3316 111.798 63.1584 111.738 62.9663C110.836 60.9155 111.349 58.4751 109.975 56.814C108.553 58.4974 107.417 60.4025 106.611 62.4536L101.32 60.813C101.054 61.8523 101.006 62.9354 101.179 63.9943C101.352 65.0531 101.742 66.0647 102.325 66.9653C101.396 67.3775 100.548 67.9541 99.8233 68.6674C99.4695 69.0279 99.2227 69.4794 99.1104 69.9719C98.9982 70.4643 99.0249 70.9783 99.1875 71.4565C100.406 71.7645 101.664 71.8889 102.92 71.8256C102.72 74.1497 102.851 76.4905 103.31 78.7777C103.322 78.9474 103.368 79.1129 103.446 79.2644C103.523 79.4158 103.63 79.5502 103.761 79.6595C104.15 79.9056 104.663 79.6595 105.053 79.4544C106.88 78.3225 108.379 76.7316 109.4 74.8402L111.451 79.5365C111.591 80.0214 111.905 80.4375 112.333 80.7054C112.631 80.8058 112.955 80.8039 113.252 80.6999C113.549 80.5959 113.803 80.3958 113.974 80.1312C114.3 79.5888 114.497 78.9781 114.548 78.347L115.286 73.8763C115.299 73.65 115.386 73.4341 115.532 73.2611C115.752 73.0862 116.032 73.0051 116.311 73.0355C118.185 73.0355 120.051 73.0355 121.91 73.0355C122.238 72.0512 121.233 71.1283 120.29 70.6977C119.347 70.267 118.239 69.9799 117.726 69.0366C116.742 67.1498 119.265 64.5249 118.198 62.8842C117.132 61.2436 114.835 62.7407 113.194 63.561Z" fill="#0036FF"/>
              <path opacity="0.5" d="M134.496 219.255C134.306 219.374 134.086 219.438 133.861 219.439C133.471 219.439 133.184 219.05 133.02 218.681C132.118 216.732 132.63 214.189 131.256 212.528C129.842 214.217 128.706 216.121 127.893 218.168L122.602 216.527C122.346 217.568 122.302 218.649 122.475 219.706C122.648 220.764 123.033 221.775 123.607 222.68C122.682 223.089 121.841 223.666 121.125 224.382C120.768 224.74 120.518 225.191 120.402 225.683C120.286 226.176 120.309 226.691 120.469 227.171C121.688 227.478 122.946 227.602 124.202 227.54C124.001 229.864 124.133 232.205 124.591 234.492C124.627 234.832 124.788 235.146 125.042 235.374C125.432 235.62 125.945 235.374 126.334 235.148C128.164 234.028 129.664 232.443 130.682 230.555L132.733 235.251C132.886 235.729 133.197 236.141 133.615 236.42C133.913 236.524 134.237 236.524 134.535 236.42C134.833 236.315 135.087 236.113 135.255 235.846C135.589 235.305 135.793 234.694 135.85 234.061L136.588 229.591C136.591 229.362 136.679 229.143 136.834 228.975C136.941 228.886 137.066 228.819 137.2 228.781C137.334 228.742 137.475 228.731 137.614 228.75C139.48 228.75 141.346 228.75 143.192 228.75C143.52 227.766 142.535 226.843 141.572 226.412C140.608 225.981 139.521 225.674 139.008 224.751C138.044 222.864 140.567 220.239 139.48 218.599C138.393 216.958 136.117 218.455 134.496 219.255Z" fill="#0036FF"/>
              <path opacity="0.5" d="M83.3707 158.553C83.1879 158.673 82.9741 158.737 82.7555 158.737C82.3453 158.737 82.0787 158.348 81.9146 157.978C81.0123 156.03 81.525 153.487 80.1305 151.826C78.7231 153.52 77.5884 155.423 76.7672 157.466L71.4968 155.825C71.2325 156.864 71.1835 157.945 71.3528 159.003C71.5221 160.061 71.9061 161.073 72.4811 161.977C71.5605 162.395 70.7206 162.971 69.9997 163.68C69.6424 164.038 69.3918 164.488 69.2759 164.981C69.16 165.474 69.1834 165.989 69.3435 166.469C70.5626 166.775 71.8203 166.899 73.0758 166.838C72.8823 169.163 73.0204 171.504 73.486 173.79C73.4984 173.96 73.5447 174.125 73.6222 174.277C73.6997 174.428 73.8068 174.562 73.9372 174.672C74.3268 174.918 74.8395 174.672 75.2292 174.446C77.0588 173.326 78.5589 171.741 79.5768 169.852L81.6275 174.549C81.7625 175.03 82.0688 175.446 82.4889 175.718C82.7903 175.819 83.1169 175.818 83.4176 175.714C83.7182 175.61 83.9759 175.41 84.15 175.143C84.4766 174.601 84.6731 173.99 84.7242 173.359L85.4625 168.889C85.4757 168.662 85.562 168.446 85.7086 168.273C85.9285 168.098 86.2085 168.017 86.4879 168.048C88.3472 168.048 90.2134 168.048 92.0865 168.048C92.3941 167.063 91.4097 166.141 90.4664 165.71C89.523 165.279 88.4156 164.972 87.9029 164.049C86.9185 162.162 89.441 159.537 88.3746 157.896C87.3082 156.256 85.0113 157.753 83.3707 158.553Z" fill="#0036FF"/>
              <path opacity="0.5" d="M302.926 172.846C302.742 172.963 302.529 173.027 302.311 173.031C301.901 173.031 301.634 172.641 301.449 172.272C300.567 170.324 301.08 167.781 299.686 166.12C298.278 167.813 297.144 169.716 296.322 171.759L291.052 170.119C290.802 171.142 290.761 172.204 290.93 173.243C291.099 174.283 291.475 175.277 292.036 176.168C291.106 176.568 290.263 177.147 289.555 177.871C289.198 178.229 288.947 178.679 288.831 179.172C288.715 179.664 288.739 180.18 288.899 180.66C290.12 180.956 291.376 181.08 292.631 181.029C292.438 183.354 292.576 185.695 293.041 187.981C293.054 188.15 293.1 188.316 293.177 188.467C293.255 188.619 293.362 188.753 293.492 188.863C293.882 189.109 294.395 188.863 294.784 188.637C296.604 187.505 298.102 185.923 299.132 184.043L301.183 188.719C301.313 189.208 301.62 189.632 302.044 189.909C302.345 190.01 302.672 190.009 302.973 189.905C303.273 189.801 303.531 189.601 303.705 189.334C304.032 188.792 304.228 188.181 304.279 187.55L305.018 183.079C305.033 182.848 305.119 182.626 305.264 182.444C305.488 182.278 305.767 182.205 306.043 182.239C307.902 182.239 309.769 182.239 311.642 182.239C311.949 181.254 310.965 180.331 310.022 179.901C309.078 179.47 307.971 179.163 307.458 178.24C306.474 176.353 308.996 173.728 307.93 172.087C306.863 170.447 304.566 172.046 302.926 172.846Z" fill="#0036FF"/>
              <path opacity="0.2" d="M196.388 160.911C196.205 161.031 195.992 161.095 195.773 161.096C195.363 161.096 195.096 160.686 194.932 160.337C194.03 158.286 194.543 155.846 193.148 154.185C191.749 155.884 190.616 157.786 189.785 159.824L184.514 158.184C184.253 159.222 184.205 160.303 184.374 161.361C184.543 162.419 184.926 163.431 185.499 164.336C184.575 164.739 183.734 165.309 183.017 166.017C182.66 166.38 182.41 166.834 182.294 167.33C182.178 167.826 182.202 168.344 182.361 168.827C183.584 169.113 184.839 169.237 186.093 169.196C185.902 171.514 186.04 173.848 186.504 176.128C186.511 176.299 186.555 176.466 186.633 176.618C186.711 176.77 186.821 176.904 186.955 177.01C187.344 177.276 187.857 177.01 188.247 176.805C190.074 175.673 191.573 174.082 192.594 172.19L194.645 176.887C194.78 177.368 195.086 177.784 195.506 178.056C195.805 178.167 196.133 178.173 196.435 178.072C196.737 177.971 196.996 177.77 197.168 177.502C197.494 176.959 197.691 176.349 197.742 175.718L198.48 171.247C198.496 171.015 198.582 170.793 198.726 170.611C198.955 170.454 199.228 170.375 199.505 170.386C201.379 170.386 203.245 170.386 205.104 170.386C205.412 169.401 204.427 168.478 203.484 168.068C202.541 167.658 201.433 167.33 200.921 166.407C199.936 164.52 202.459 161.895 201.392 160.255C200.326 158.614 198.029 160.111 196.388 160.911Z" fill="#0036FF"/>
              <path opacity="0.3" d="M162.961 175.451C162.777 175.568 162.564 175.632 162.346 175.636C161.936 175.636 161.669 175.246 161.485 174.877C160.582 172.826 161.115 170.386 159.721 168.725C158.322 170.424 157.188 172.326 156.358 174.364L151.067 172.744C150.825 173.769 150.789 174.831 150.961 175.87C151.134 176.909 151.511 177.903 152.072 178.794C151.146 179.194 150.305 179.764 149.59 180.476C149.233 180.838 148.983 181.292 148.867 181.788C148.751 182.284 148.774 182.802 148.934 183.285C150.157 183.571 151.411 183.695 152.666 183.654C152.475 185.979 152.613 188.32 153.076 190.606C153.089 190.776 153.135 190.941 153.213 191.093C153.29 191.244 153.397 191.379 153.528 191.488C153.917 191.734 154.43 191.488 154.82 191.263C156.647 190.131 158.146 188.54 159.167 186.648L161.218 191.345C161.348 191.834 161.655 192.257 162.079 192.534C162.381 192.636 162.707 192.635 163.008 192.531C163.309 192.427 163.566 192.226 163.74 191.96C164.067 191.417 164.264 190.807 164.315 190.176L165.053 185.705C165.069 185.473 165.155 185.251 165.299 185.069C165.525 184.907 165.8 184.827 166.078 184.844C167.944 184.844 169.811 184.844 171.677 184.844C171.985 183.839 171 182.916 170.057 182.506C169.113 182.096 168.006 181.767 167.493 180.845C166.509 178.958 169.031 176.333 167.965 174.692C166.899 173.052 164.602 174.651 162.961 175.451Z" fill="#0036FF"/>
              <path opacity="0.2" d="M131.81 87.5341C131.619 87.6536 131.399 87.7175 131.174 87.7187C130.785 87.7187 130.497 87.3291 130.333 86.9599C129.431 84.9092 129.944 82.4687 128.57 80.8076C127.16 82.4921 126.025 84.3884 125.206 86.4267L119.915 84.8066C119.649 85.8459 119.601 86.9291 119.774 87.9879C119.947 89.0467 120.337 90.0583 120.92 90.9589C119.992 91.3638 119.144 91.9335 118.418 92.6405C118.069 93.0079 117.825 93.463 117.713 93.9576C117.601 94.4523 117.625 94.968 117.783 95.4501C119.003 95.7471 120.26 95.8713 121.515 95.8192C121.317 98.1434 121.448 100.484 121.905 102.771C121.917 102.941 121.963 103.107 122.041 103.258C122.118 103.409 122.226 103.544 122.356 103.653C122.746 103.899 123.258 103.653 123.648 103.428C125.483 102.305 126.984 100.712 127.996 98.8133L130.046 103.51C130.194 103.996 130.505 104.417 130.928 104.699C131.25 104.793 131.595 104.769 131.9 104.629C132.205 104.49 132.45 104.245 132.589 103.94C132.923 103.4 133.127 102.789 133.184 102.156L133.902 97.6854C133.918 97.4535 134.003 97.2318 134.148 97.0497C134.377 96.8928 134.65 96.8137 134.927 96.8241C136.793 96.8241 138.659 96.8241 140.526 96.8241C140.854 95.8192 139.869 94.8964 138.906 94.4862C137.942 94.0761 136.855 93.748 136.342 92.8251C135.378 90.9384 137.88 88.3134 136.814 86.6728C135.747 85.0322 133.43 86.6318 131.81 87.5341Z" fill="#0036FF"/>
              <path opacity="0.3" d="M193.189 202.377C192.995 202.488 192.777 202.551 192.553 202.561C192.164 202.561 191.877 202.151 191.713 201.782C190.81 199.834 191.323 197.312 189.949 195.63C188.539 197.322 187.404 199.225 186.586 201.269L181.295 199.629C181.031 200.668 180.984 201.751 181.157 202.81C181.33 203.868 181.719 204.88 182.3 205.781C181.367 206.178 180.518 206.749 179.798 207.463C179.45 207.827 179.207 208.279 179.095 208.77C178.983 209.261 179.006 209.773 179.162 210.252C180.382 210.556 181.638 210.687 182.894 210.641C182.696 212.959 182.827 215.293 183.284 217.573C183.32 217.913 183.48 218.227 183.735 218.455C183.949 218.541 184.182 218.567 184.41 218.531C184.637 218.495 184.851 218.398 185.027 218.25C186.855 217.118 188.353 215.527 189.375 213.636L191.426 218.332C191.566 218.817 191.88 219.233 192.307 219.501C192.604 219.603 192.925 219.604 193.222 219.504C193.519 219.404 193.774 219.208 193.948 218.947C194.282 218.406 194.485 217.796 194.543 217.163L195.281 212.692C195.275 212.563 195.298 212.434 195.35 212.315C195.402 212.196 195.481 212.091 195.58 212.007C195.679 211.924 195.796 211.864 195.922 211.834C196.048 211.803 196.18 211.802 196.306 211.831C198.173 211.831 200.018 211.831 201.884 211.831C202.213 210.847 201.228 209.924 200.264 209.514C199.3 209.103 198.214 208.775 197.701 207.852C196.737 205.966 199.239 203.341 198.173 201.7C197.106 200.06 194.809 201.475 193.189 202.377Z" fill="#0036FF"/>
            </svg>