<svg xmlns="http://www.w3.org/2000/svg" width="327" height="326" viewBox="0 0 327 326" fill="none">
  <path d="M34.9429 263.628C30.2812 257.715 26.0458 251.479 22.269 244.966L111.703 230.282L14.9683 231C5.68675 210.809 0.623103 188.937 0.0871176 166.722C-0.448868 144.507 3.55417 122.416 11.8512 101.802L141.644 169.128L21.941 81.1504C33.1752 61.8119 48.2675 44.9914 66.2796 31.7344C84.2916 18.4774 104.838 9.06757 126.642 4.08991C148.446 -0.887754 171.041 -1.32682 193.021 2.80004C215.002 6.92691 235.899 15.5315 254.412 28.0787C272.926 40.6259 288.66 56.8475 300.637 75.7349C312.614 94.6223 320.578 115.772 324.032 137.868C327.487 159.964 326.36 182.535 320.72 204.177C315.079 225.819 305.048 246.069 291.248 263.669C298.497 272.884 304.733 282.854 309.848 293.405L193.734 353.738L317.539 312.19C326.238 337.884 328.39 365.342 323.799 392.077C319.208 418.812 308.02 443.98 291.248 465.3C310.162 489.352 321.927 518.241 325.197 548.665C328.468 579.088 323.112 609.818 309.742 637.34C296.371 664.863 275.527 688.069 249.591 704.304C223.654 720.539 193.673 729.149 163.075 729.149C132.476 729.149 102.495 720.539 76.5589 704.304C50.6227 688.069 29.7781 664.863 16.408 637.34C3.03791 609.818 -2.31812 579.088 0.952285 548.665C4.22269 518.241 15.9876 489.352 34.9018 465.3C12.2922 436.559 0 401.052 0 364.484C0 327.916 12.2922 292.409 34.9018 263.669L34.9429 263.628Z" fill="#DCE2F5"/>
</svg>