<svg width="10" height="11" viewBox="0 0 10 11" fill="none" xmlns="http://www.w3.org/2000/svg">
<path fill-rule="evenodd" clipRule="evenodd" d="M7.08476 3.37988C7.08476 3.94023 6.86504 4.47763 6.47396 4.87386C6.08287 5.2701 5.55243 5.4927 4.99935 5.4927C4.44626 5.4927 3.91583 5.2701 3.52474 4.87386C3.13364 4.47763 2.91393 3.94023 2.91393 3.37988C2.91393 2.81952 3.13364 2.28212 3.52474 1.88589C3.91583 1.48966 4.44626 1.26706 4.99935 1.26706C5.55243 1.26706 6.08287 1.48966 6.47396 1.88589C6.86504 2.28212 7.08476 2.81952 7.08476 3.37988ZM7.13565 5.97696C7.66226 5.53211 8.0408 4.93371 8.2199 4.26316C8.39891 3.59259 8.36963 2.88244 8.13615 2.2293C7.90266 1.57617 7.47624 1.01177 6.91493 0.612878C6.35358 0.213995 5.68457 0 4.99893 0C4.31329 0 3.64429 0.213995 3.08295 0.612878C2.52162 1.01177 2.09519 1.57617 1.86171 2.2293C1.62822 2.88244 1.59899 3.59259 1.77801 4.26316C1.95703 4.93371 2.3356 5.53211 2.86221 5.97696C2.04105 6.37028 1.34092 6.98245 0.836775 7.74792C0.33263 8.51344 0.0434492 9.40336 0.000189357 10.3226C-0.00383133 10.4883 0.0563121 10.6489 0.167757 10.7701C0.279193 10.8914 0.433063 10.9636 0.596426 10.9713C0.759781 10.9791 0.919633 10.9217 1.04175 10.8115C1.16386 10.7013 1.23853 10.5471 1.24977 10.3818C1.29525 9.40522 1.71015 8.48395 2.40835 7.8092C3.10655 7.13439 4.03442 6.75791 4.99935 6.75791C5.96428 6.75791 6.89216 7.13439 7.59035 7.8092C8.28855 8.48395 8.70346 9.40522 8.74893 10.3818C8.75101 10.4662 8.76961 10.5493 8.80381 10.6263C8.83801 10.7033 8.88706 10.7726 8.94804 10.83C9.00902 10.8876 9.08076 10.9322 9.15892 10.9613C9.23716 10.9903 9.32033 11.0033 9.40358 10.9993C9.48683 10.9954 9.56841 10.9746 9.64365 10.9383C9.71881 10.9019 9.78613 10.8508 9.84152 10.7878C9.89699 10.7247 9.93937 10.6511 9.96631 10.5712C9.99334 10.4914 10.0043 10.4068 9.99851 10.3226C9.95513 9.40327 9.66584 8.51327 9.16159 7.74775C8.65725 6.98228 7.95697 6.37016 7.13565 5.97696Z" fill="#242424"/>
</svg>
