<svg width="13" height="10" viewBox="0 0 13 10" fill="none" xmlns="http://www.w3.org/2000/svg">
<path fill-rule="evenodd" clipRule="evenodd" d="M1.24724 4.94304C1.58543 4.42578 2.26508 3.4846 3.18648 2.67897C4.11352 1.86842 5.22148 1.25 6.42857 1.25C7.63565 1.25 8.74366 1.86842 9.67064 2.67897C10.592 3.4846 11.2717 4.42578 11.6099 4.94304C11.6335 4.97917 11.6335 5.02083 11.6099 5.05696C11.2717 5.57422 10.592 6.5154 9.67064 7.321C8.74366 8.13158 7.63565 8.75 6.42857 8.75C5.22148 8.75 4.11352 8.13158 3.18648 7.321C2.26508 6.5154 1.58543 5.57422 1.24724 5.05696C1.22361 5.02083 1.22361 4.97917 1.24724 4.94304ZM6.42857 0C4.80449 0 3.41967 0.826392 2.38477 1.73126C1.34424 2.64105 0.592815 3.68589 0.223288 4.25108C-0.0744298 4.70643 -0.0744286 5.29358 0.223288 5.74893C0.592816 6.31411 1.34424 7.35892 2.38477 8.26875C3.41967 9.17358 4.80449 10 6.42857 10C8.05265 10 9.43744 9.17358 10.4724 8.26875C11.5129 7.35892 12.2644 6.31411 12.6339 5.74893C12.9316 5.29358 12.9316 4.70643 12.6339 4.25108C12.2644 3.68589 11.5129 2.64105 10.4724 1.73126C9.43744 0.826392 8.05265 0 6.42857 0ZM6.42856 6.66667C7.33395 6.66667 8.06792 5.92048 8.06792 5C8.06792 4.07952 7.33395 3.33333 6.42856 3.33333C5.52317 3.33333 4.7892 4.07952 4.7892 5C4.7892 5.92048 5.52317 6.66667 6.42856 6.66667Z" fill="#242424"/>
</svg>
