<svg width="28" height="28" viewBox="0 0 28 28" fill="none" xmlns="http://www.w3.org/2000/svg">
<path d="M0 13.44C0 7.1043 0 3.93648 1.96824 1.96824C3.93648 0 7.1043 0 13.44 0H14.56C20.8957 0 24.0635 0 26.0318 1.96824C28 3.93648 28 7.1043 28 13.44V14.56C28 20.8957 28 24.0635 26.0318 26.0318C24.0635 28 20.8957 28 14.56 28H13.44C7.1043 28 3.93648 28 1.96824 26.0318C0 24.0635 0 20.8957 0 14.56V13.44Z" fill="#0077FF"/>
<path d="M14.8984 20.1717C8.51671 20.1717 4.87676 15.7967 4.7251 8.51672H7.92176C8.02676 13.8601 10.3834 16.1234 12.25 16.5901V8.51672H15.2602V13.1251C17.1035 12.9267 19.0399 10.8267 19.6933 8.51672H22.7033C22.2016 11.3634 20.1016 13.4634 18.6083 14.3267C20.1016 15.0267 22.4934 16.8584 23.4034 20.1717H20.09C19.3783 17.9551 17.6052 16.2401 15.2602 16.0067V20.1717H14.8984Z" fill="white"/>
</svg>
