<svg width="288" height="275" viewBox="0 0 288 275" fill="none" xmlns="http://www.w3.org/2000/svg">
<g opacity="0.8">
<path opacity="0.5" d="M108.559 40.019C104.948 35.1146 97.4872 40.4352 100.861 45.5031C101.738 46.8406 102.704 48.1187 103.625 49.3523C114.727 64.3479 120.479 82.5537 125.428 100.537C126.646 104.995 127.82 109.677 126.438 114.031C128.43 102.35 127.137 90.2522 124.135 78.7937C121.132 67.3351 116.555 56.3671 111.666 45.4733C110.823 43.552 109.782 41.7239 108.559 40.019Z" fill="#0036FF"/>
<path d="M36.5089 71.5115C29.078 71.2737 28.0673 82.643 35.528 83.2375C37.4897 83.3861 39.4515 83.4307 41.339 83.4902C64.2709 84.1144 85.9246 92.4073 106.806 101.324C111.918 103.524 117.209 105.991 120.285 110.687C110.893 99.7936 98.5126 91.8128 85.3599 85.9424C72.2071 80.0719 58.1775 76.2227 44.1627 72.5667C41.6582 71.9336 39.0913 71.5797 36.5089 71.5115Z" fill="#0036FF"/>
<path opacity="0.2" d="M38.5744 99.4669C33.8484 99.6304 34.9184 106.363 39.6742 106.393C40.9226 106.393 42.171 106.393 43.3599 106.303C57.8205 105.709 72.6378 109.707 87.0093 114.091C90.5464 115.176 94.2618 116.395 96.8329 119.04C89.2016 113.148 80.5518 108.71 71.3151 105.947C62.2213 103.241 52.9429 101.199 43.5531 99.8384C41.9107 99.5439 40.2424 99.4194 38.5744 99.4669Z" fill="#0036FF"/>
<path opacity="0.5" d="M135.384 224.396C136.722 228.943 142.964 226.239 141.82 221.616C141.522 220.413 141.166 219.224 140.824 218.079C136.663 204.213 136.856 188.861 137.539 173.85C137.718 170.165 137.97 166.256 139.888 163.12C136.078 171.971 133.927 181.447 133.542 191.075C133.17 200.563 133.493 210.065 134.508 219.506C134.637 221.161 134.931 222.799 135.384 224.396Z" fill="#0036FF"/>
<path opacity="0.2" d="M47.1944 33.673C44.3558 33.1826 44.1328 37.329 46.9714 37.9532C47.7145 38.1167 48.4576 38.2505 49.1859 38.3694C57.8949 39.8556 66.2324 44.1209 74.2578 48.5646C76.3268 49.5123 78.1291 50.9572 79.5041 52.7705C75.6911 48.2805 71.087 44.5277 65.9203 41.6984C60.832 38.9325 55.5525 36.5336 50.1222 34.5201C49.1744 34.1482 48.1944 33.8646 47.1944 33.673Z" fill="#0036FF"/>
<path d="M3.2331 143.607C-3.98977 147.323 2.11845 157.533 9.53452 154.144C11.4814 153.252 13.3689 152.257 15.182 151.32C37.2668 139.862 62.9036 135.656 88.139 132.401C94.3216 131.614 100.92 130.915 106.657 133.367C91.0371 128.909 74.4215 128.597 58.3558 130.395C42.2902 132.193 26.6703 136.34 11.199 140.546C8.44654 141.293 5.77742 142.318 3.2331 143.607Z" fill="#0036FF"/>
<path opacity="0.5" d="M23.8763 183.332C18.6746 188.177 26.8486 193.899 32.2286 189.277C33.7148 188.058 35.0078 186.765 36.3157 185.546C52.1287 170.685 73.0393 160.133 93.8608 150.383C98.9733 147.99 120.003 145.553 125.621 145.687C110.952 146.995 81.035 151.632 67.6593 157.576C54.6008 163.782 41.9788 170.868 29.8804 178.784C27.7406 180.108 25.7303 181.631 23.8763 183.332Z" fill="#0036FF"/>
<path d="M60.9119 246.763C59.4257 253.689 69.3089 253.793 71.1517 246.867C71.6273 245.054 72.0138 243.226 72.3853 241.487C76.9628 220.279 88.1537 199.681 99.746 179.84C102.599 174.966 118.517 160.995 123.213 157.919C111.888 167.341 89.8479 188.133 82.3278 200.691C75.1133 213.223 68.7529 226.227 63.2898 239.615C62.2714 241.916 61.4752 244.31 60.9119 246.763Z" fill="#0036FF"/>
<path d="M135.459 3.26602C131.922 -3.94199 121.816 1.9879 125.056 9.38911C125.903 11.3212 126.839 13.2086 127.746 15.0218C138.625 37.0471 142.37 62.5798 145.179 87.5626C145.862 93.7154 146.442 100.255 143.945 105.902C148.508 90.4904 149.117 74.0234 147.542 58.0766C145.966 42.1298 142.206 26.6438 138.283 11.2023C137.614 8.4677 136.668 5.80852 135.459 3.26602Z" fill="#0036FF"/>
<path d="M79.1328 15.5419C79.3181 15.6505 79.5274 15.7118 79.7421 15.7203C80.1285 15.7203 80.4108 15.319 80.5743 14.9623C81.4512 13.0451 80.9459 10.5038 82.3132 9.01758C83.6952 10.6767 84.8084 12.5422 85.6125 14.5462L90.7993 12.9411C91.0414 13.9473 91.0792 14.9918 90.9108 16.0128C90.7423 17.0339 90.3709 18.0108 89.8184 18.8859C90.7253 19.2879 91.5513 19.852 92.2558 20.5504C92.6066 20.9045 92.8521 21.3491 92.9649 21.8346C93.0777 22.3201 93.0535 22.8273 92.8949 23.2998C91.6988 23.589 90.4682 23.709 89.2388 23.6565C89.4325 25.9379 89.2974 28.2352 88.8375 30.4781C88.8253 30.6445 88.7796 30.8067 88.703 30.9548C88.6264 31.103 88.5204 31.2341 88.3917 31.3401C88.0201 31.5928 87.5149 31.3401 87.1285 31.132C85.3448 30.0401 83.8751 28.5038 82.8631 26.6735L80.8864 31.1023C80.746 31.575 80.44 31.9813 80.0244 32.2467C79.7319 32.3502 79.413 32.3522 79.1191 32.2525C78.8253 32.1527 78.5736 31.957 78.4045 31.6968C78.089 31.1612 77.8961 30.5622 77.8398 29.9431L77.1116 25.4845C77.1031 25.256 77.0194 25.0366 76.8737 24.8603C76.6568 24.696 76.3871 24.6167 76.1157 24.6374C74.2729 24.6374 72.4449 24.6374 70.6169 24.6374C70.3048 23.6565 71.2708 22.75 72.2071 22.3487C73.1434 21.9474 74.258 21.6205 74.7336 20.7139C75.6848 18.8561 73.2474 16.2553 74.258 14.68C75.5361 12.8965 77.5277 14.7543 79.1328 15.5419Z" fill="#0036FF"/>
<path opacity="0.5" d="M179.287 40.019C182.899 35.1146 190.344 40.4352 186.986 45.5031C186.094 46.8406 185.143 48.1187 184.221 49.3523C173.12 64.3479 167.368 82.5537 162.404 100.537C161.185 104.995 160.011 109.677 161.408 114.031C159.417 102.35 160.71 90.2522 163.712 78.7937C166.714 67.3351 171.351 56.3671 176.166 45.5179C177.017 43.5837 178.063 41.7412 179.287 40.019Z" fill="#0036FF"/>
<path d="M251.323 71.5115C258.753 71.2737 259.764 82.643 252.303 83.2375C250.357 83.3861 248.38 83.4307 246.507 83.4902C223.561 84.1144 201.922 92.4073 181.041 101.324C175.928 103.524 170.548 105.991 167.561 110.687C176.954 99.7936 189.319 91.8128 202.486 85.9424C215.654 80.0719 229.654 76.2227 243.684 72.5667C246.183 71.9347 248.745 71.5808 251.323 71.5115Z" fill="#0036FF"/>
<path opacity="0.5" d="M249.256 99.4672C253.997 99.6307 252.927 106.363 248.172 106.393C246.923 106.393 245.675 106.393 244.486 106.304C230.01 105.709 215.208 109.707 200.836 114.091C197.299 115.176 193.569 116.395 191.013 119.04C198.644 113.148 207.294 108.71 216.531 105.947C225.648 103.228 234.951 101.176 244.367 99.809C245.981 99.5299 247.619 99.4154 249.256 99.4672Z" fill="#0036FF"/>
<path opacity="0.2" d="M240.652 33.673C243.49 33.1826 243.713 37.329 240.874 37.9532C240.131 38.1167 239.388 38.2505 238.66 38.3694C229.951 39.8556 221.599 44.1209 213.573 48.5646C211.509 49.5128 209.711 50.9578 208.342 52.7705C212.149 48.281 216.749 44.5281 221.911 41.6984C227.006 38.9351 232.29 36.5364 237.724 34.5201C238.672 34.1482 239.652 33.8646 240.652 33.673Z" fill="#0036FF"/>
<path opacity="0.2" d="M166.506 233.001C165.867 235.825 161.958 234.487 162.478 231.515C162.612 230.772 162.79 230.029 162.954 229.315C164.93 220.71 164.217 211.362 163.206 202.252C163.133 199.981 162.494 197.764 161.349 195.802C164.022 201.043 165.709 206.73 166.327 212.581C166.923 218.347 167.097 224.148 166.848 229.939C166.84 230.969 166.725 231.995 166.506 233.001Z" fill="#0036FF"/>
<path opacity="0.5" d="M238.823 214.26C241.053 218.035 235.583 217.782 233.176 214.007C232.551 213.027 231.972 212.031 231.422 211.035C224.645 199.517 214.346 188.118 203.957 177.105C201.497 174.251 198.627 171.776 195.441 169.764C203.542 175.293 211.017 181.686 217.734 188.831C224.392 195.802 230.278 203.069 236.044 210.322C237.06 211.569 237.988 212.885 238.823 214.26Z" fill="#0036FF"/>
<path opacity="0.2" d="M40.967 214.26C38.7377 218.035 44.2069 217.782 46.5996 214.007C47.2387 213.027 47.8183 212.031 48.3682 211.035C55.1452 199.517 65.4445 188.118 75.8329 177.105C78.2894 174.247 81.1599 171.772 84.3488 169.764C76.2455 175.289 68.7702 181.682 62.056 188.831C55.3979 195.802 49.4977 203.069 43.7462 210.322C42.7305 211.569 41.8019 212.885 40.967 214.26Z" fill="#0036FF"/>
<path opacity="0.2" d="M113.33 233.001C113.969 235.825 117.878 234.487 117.358 231.515C117.224 230.772 117.045 230.029 116.882 229.315C114.905 220.71 115.619 211.362 116.629 202.252C116.703 199.981 117.341 197.764 118.487 195.802C115.834 201.061 114.172 206.764 113.583 212.625C112.987 218.391 112.813 224.193 113.063 229.984C113.049 230.996 113.138 232.007 113.33 233.001Z" fill="#0036FF"/>
<path opacity="0.2" d="M217.853 61.985C220.692 61.4797 220.915 65.6261 218.076 66.2652C217.333 66.4287 216.59 66.5476 215.862 66.6665C207.153 68.1526 198.815 72.4329 190.775 76.8766C188.71 77.8179 186.912 79.2582 185.543 81.0676C189.353 76.5778 193.958 72.8293 199.127 70.0104C204.21 67.2323 209.49 64.833 214.925 62.8321C215.869 62.4466 216.85 62.1626 217.853 61.985Z" fill="#0036FF"/>
<path opacity="0.2" d="M191.266 6.4022C193.718 4.91602 195.472 8.64635 193.064 10.296C192.44 10.727 191.786 11.1134 191.177 11.4998C183.642 16.1367 177.504 23.211 171.722 30.3447C170.15 31.9814 169.02 33.9914 168.438 36.1854C170.292 30.5976 173.159 25.3986 176.894 20.8479C180.578 16.3775 184.582 12.1804 188.873 8.28966C189.607 7.58373 190.408 6.95155 191.266 6.4022Z" fill="#0036FF"/>
<path d="M284.613 143.607C291.836 147.323 285.727 157.533 278.311 154.144C276.364 153.252 274.462 152.257 272.664 151.32C250.579 139.862 224.928 135.656 199.707 132.401C193.524 131.614 186.926 130.915 181.189 133.367C196.794 128.909 213.424 128.597 229.49 130.395C245.556 132.193 261.176 136.34 276.647 140.546C279.398 141.295 282.067 142.321 284.613 143.607Z" fill="#0036FF"/>
<path opacity="0.5" d="M263.97 183.332C269.156 188.177 260.997 193.899 255.602 189.277C254.19 188.058 252.823 186.765 251.53 185.546C235.702 170.685 214.792 160.133 193.985 150.383C188.872 147.99 167.828 145.553 162.225 145.687C176.894 146.995 206.811 151.632 220.186 157.576C233.25 163.782 245.877 170.868 257.98 178.784C260.115 180.109 262.12 181.632 263.97 183.332Z" fill="#0036FF"/>
<path d="M202.753 254.67C203.392 261.729 193.524 260.614 192.573 253.496C192.32 251.638 192.172 249.78 192.023 247.997C190.136 226.388 181.62 204.555 172.599 183.407C170.384 178.22 156.34 162.377 152.06 158.736C162.121 169.496 181.382 192.919 187.267 206.294C192.854 219.626 197.532 233.32 201.267 247.283C201.989 249.695 202.486 252.167 202.753 254.67Z" fill="#0036FF"/>
<path d="M208.699 15.5419C208.513 15.6505 208.304 15.7118 208.089 15.7203C207.688 15.7203 207.421 15.319 207.257 14.9623C206.365 13.0451 206.885 10.5038 205.518 9.01758C204.136 10.6767 203.023 12.5422 202.219 14.5462L197.032 12.9411C196.787 13.947 196.747 14.9921 196.916 16.0136C197.084 17.0352 197.457 18.0122 198.013 18.8859C197.102 19.2878 196.271 19.8518 195.561 20.5504C195.214 20.907 194.972 21.3523 194.862 21.8374C194.752 22.3224 194.778 22.8285 194.937 23.2998C196.132 23.5896 197.363 23.7096 198.593 23.6565C198.401 25.9373 198.532 28.2336 198.979 30.4781C199.01 30.8125 199.17 31.1216 199.425 31.3401C199.811 31.5928 200.317 31.3401 200.703 31.1321C202.487 30.0401 203.956 28.5038 204.968 26.6735L206.9 31.2807C207.036 31.7559 207.343 32.1637 207.762 32.425C208.052 32.5303 208.37 32.5331 208.662 32.4331C208.954 32.3331 209.203 32.1362 209.367 31.8751C209.694 31.3434 209.892 30.743 209.947 30.1214L210.66 25.6629C210.681 25.4344 210.769 25.2172 210.913 25.0387C211.13 24.8743 211.4 24.795 211.671 24.8158C213.499 24.8158 215.342 24.8158 217.17 24.8158C217.482 23.8349 216.501 22.9283 215.565 22.527C214.629 22.1258 213.529 21.7988 213.053 20.8922C212.102 19.0345 214.539 16.4337 213.514 14.8583C212.31 12.8965 210.319 14.7543 208.699 15.5419Z" fill="#0036FF"/>
<path opacity="0.2" d="M224.363 229.226C224.178 229.334 223.968 229.395 223.754 229.404C223.352 229.404 223.085 229.018 222.921 228.661C222.045 226.729 222.55 224.202 221.183 222.627C219.804 224.288 218.691 226.153 217.883 228.156L212.696 226.55C212.454 227.557 212.416 228.601 212.585 229.622C212.753 230.643 213.125 231.62 213.677 232.495C212.77 232.897 211.944 233.461 211.24 234.16C210.889 234.514 210.644 234.958 210.531 235.444C210.418 235.929 210.442 236.437 210.601 236.909C211.796 237.203 213.027 237.328 214.257 237.281C214.063 239.557 214.198 241.85 214.658 244.088C214.67 244.256 214.716 244.421 214.792 244.571C214.869 244.722 214.975 244.855 215.104 244.964C215.476 245.202 215.981 244.964 216.367 244.741C218.151 243.649 219.621 242.113 220.633 240.283L222.565 244.89C222.709 245.365 223.014 245.774 223.427 246.049C223.722 246.134 224.036 246.125 224.326 246.024C224.616 245.923 224.868 245.735 225.047 245.485C225.362 244.949 225.555 244.35 225.611 243.731L226.34 239.347C226.331 239.22 226.353 239.094 226.402 238.977C226.452 238.861 226.529 238.758 226.626 238.677C226.723 238.596 226.838 238.539 226.961 238.511C227.084 238.482 227.213 238.484 227.335 238.514C229.163 238.514 231.006 238.44 232.834 238.514C233.146 237.533 232.18 236.642 231.244 236.226C230.308 235.809 229.193 235.512 228.717 234.591C227.766 232.748 230.204 230.132 229.193 228.572C228.019 226.58 225.968 228.438 224.363 229.226Z" fill="#0036FF"/>
<path d="M268.339 85.9873C268.152 86.1043 267.936 86.1661 267.715 86.1657C267.329 86.1657 267.061 85.7793 266.898 85.4226C266.006 83.5054 266.511 80.964 265.159 79.3887C263.777 81.0537 262.664 82.924 261.859 84.9322L256.673 83.3122C256.426 84.318 256.386 85.3633 256.555 86.385C256.723 87.4067 257.097 88.3836 257.654 89.257C256.74 89.6551 255.909 90.2195 255.201 90.9215C254.858 91.2801 254.617 91.7247 254.504 92.2085C254.392 92.6923 254.412 93.1975 254.562 93.6709C255.763 93.9649 256.998 94.09 258.233 94.0425C258.042 96.3183 258.172 98.6097 258.62 100.849C258.65 101.188 258.81 101.502 259.065 101.726C259.452 101.964 259.942 101.726 260.329 101.518C262.116 100.425 263.59 98.8895 264.609 97.0594L266.526 101.667C266.666 102.144 266.972 102.555 267.388 102.826C267.682 102.925 268.002 102.924 268.295 102.821C268.588 102.719 268.839 102.522 269.008 102.261C269.337 101.73 269.536 101.13 269.588 100.507L270.301 96.0488C270.321 95.8273 270.403 95.616 270.539 95.4395C270.758 95.2689 271.035 95.1891 271.312 95.2166C273.14 95.2166 274.968 95.2166 276.796 95.2166C277.123 94.2506 276.142 93.344 275.205 92.9278C274.269 92.5117 273.154 92.2145 272.694 91.3079C271.743 89.4502 274.18 86.8493 273.154 85.274C271.936 83.3419 269.929 85.1997 268.339 85.9873Z" fill="#0036FF"/>
<path d="M92.5382 250.656C92.282 250.811 91.9904 250.898 91.6911 250.909C91.1412 250.909 90.7547 250.359 90.5318 249.854C89.2983 247.194 90.0116 243.716 88.1093 241.472C86.1873 243.783 84.638 246.381 83.517 249.17L76.2793 246.941C75.9437 248.342 75.8917 249.796 76.1266 251.218C76.3614 252.64 76.8782 254 77.6466 255.219C76.3761 255.77 75.2214 256.557 74.2432 257.537C73.7604 258.032 73.4219 258.65 73.2648 259.323C73.1076 259.996 73.1376 260.699 73.3515 261.357C75.0233 261.766 76.7439 261.941 78.464 261.877C78.1934 265.053 78.3785 268.251 79.0138 271.374C79.0515 271.839 79.2703 272.272 79.6232 272.578C79.9166 272.697 80.2373 272.732 80.5496 272.68C80.8618 272.627 81.1535 272.489 81.3918 272.28C83.8935 270.74 85.9442 268.566 87.3366 265.979L90.0266 272.399C90.2178 273.064 90.6461 273.635 91.2304 274.004C91.639 274.147 92.0839 274.149 92.4935 274.009C92.9031 273.868 93.2538 273.595 93.4893 273.232C93.9317 272.489 94.201 271.655 94.277 270.794L95.2876 264.686C95.2993 264.366 95.414 264.059 95.6145 263.809C95.9227 263.582 96.3036 263.476 96.6846 263.512C99.2409 263.512 101.797 263.408 104.339 263.512C104.784 262.145 103.417 260.896 102.124 260.317C100.831 259.737 99.2706 259.321 98.6167 258.058C97.2791 255.472 100.727 251.875 99.2557 249.646C97.5466 246.971 94.7675 249.571 92.5382 250.656Z" fill="#0036FF"/>
<path d="M19.4023 90.2679C19.1407 90.423 18.8443 90.5099 18.5403 90.5205C18.0053 90.5205 17.6189 89.9706 17.3811 89.4653C16.1625 86.7902 16.861 83.3274 14.9735 81.0684C13.0468 83.3848 11.4924 85.987 10.3663 88.7817L3.14344 86.5375C2.80067 87.9406 2.7451 89.3985 2.98007 90.8236C3.21503 92.2488 3.73565 93.6117 4.5107 94.8305C3.2381 95.3779 2.0827 96.1651 1.10737 97.1489C0.620193 97.6409 0.278948 98.2583 0.121533 98.9326C-0.0358815 99.6069 -0.00335683 100.312 0.215599 100.968C1.88788 101.374 3.6087 101.544 5.32809 101.474C5.05903 104.649 5.23922 107.846 5.86319 110.97C5.87934 111.205 5.94293 111.434 6.05023 111.644C6.15752 111.853 6.30626 112.039 6.48736 112.189C7.02239 112.531 7.70604 112.189 8.25593 111.892C10.7541 110.347 12.8037 108.174 14.2007 105.59L16.8907 112.011C17.09 112.667 17.51 113.234 18.0796 113.616C18.4883 113.759 18.9331 113.76 19.3427 113.62C19.7524 113.48 20.1031 113.206 20.3386 112.843C20.7858 112.101 21.0601 111.268 21.1412 110.406L22.1369 104.283C22.1626 103.968 22.2817 103.668 22.4788 103.421C22.7836 103.187 23.1671 103.08 23.5488 103.123C26.0901 103.123 28.6464 103.019 31.2027 103.034C31.6337 101.682 30.2812 100.419 28.9734 99.8538C27.6655 99.289 26.1199 98.8432 25.466 97.5799C24.1433 94.9939 27.5764 91.4122 26.1199 89.1829C24.4108 86.5821 21.6316 89.1532 19.4023 90.2679Z" fill="#0036FF"/>
<path opacity="0.2" d="M241.395 189.59C241.262 189.676 241.107 189.723 240.949 189.723C240.652 189.723 240.459 189.426 240.325 189.173C239.671 187.687 240.057 185.904 239.047 184.715C238.022 185.939 237.199 187.318 236.609 188.802L232.76 187.613C232.568 188.366 232.534 189.151 232.659 189.918C232.784 190.685 233.067 191.418 233.488 192.071C232.815 192.37 232.2 192.788 231.675 193.305C231.422 193.571 231.245 193.901 231.164 194.26C231.083 194.618 231.1 194.992 231.214 195.341C232.1 195.548 233.01 195.638 233.919 195.609C233.773 197.294 233.873 198.991 234.216 200.647C234.224 200.772 234.257 200.895 234.314 201.007C234.37 201.119 234.448 201.219 234.543 201.301C234.826 201.479 235.197 201.301 235.48 201.137C236.804 200.317 237.89 199.164 238.63 197.793L240.117 201.197C240.223 201.549 240.449 201.854 240.756 202.059C240.974 202.132 241.211 202.132 241.429 202.056C241.647 201.981 241.833 201.835 241.96 201.643C242.196 201.249 242.339 200.807 242.376 200.35L242.911 197.095C242.905 197.001 242.922 196.908 242.96 196.822C242.997 196.736 243.055 196.661 243.127 196.601C243.2 196.542 243.285 196.5 243.377 196.48C243.468 196.46 243.563 196.462 243.654 196.485C245.021 196.485 246.374 196.485 247.726 196.485C247.964 195.757 247.235 195.088 246.552 194.791C245.868 194.494 245.066 194.256 244.679 193.587C243.981 192.205 245.809 190.303 245.021 189.129C244.233 187.955 242.524 189.01 241.395 189.59Z" fill="#0036FF"/>
<path opacity="0.2" d="M141.983 246.956C141.845 247.043 141.686 247.089 141.523 247.09C141.24 247.09 141.032 246.792 140.913 246.525C140.259 245.113 140.631 243.27 139.635 242.066C138.608 243.297 137.781 244.681 137.183 246.168L133.349 244.979C133.157 245.733 133.123 246.517 133.249 247.284C133.374 248.051 133.656 248.785 134.077 249.438C133.4 249.731 132.785 250.15 132.264 250.671C132.005 250.934 131.823 251.263 131.74 251.623C131.656 251.982 131.672 252.357 131.788 252.708C132.679 252.916 133.593 253.006 134.508 252.975C134.363 254.659 134.458 256.356 134.79 258.013C134.799 258.136 134.833 258.256 134.889 258.366C134.945 258.476 135.023 258.573 135.117 258.652C135.399 258.845 135.771 258.652 136.053 258.504C137.383 257.685 138.475 256.532 139.219 255.16L140.705 258.563C140.812 258.916 141.038 259.22 141.344 259.425C141.563 259.499 141.799 259.498 142.017 259.423C142.235 259.347 142.422 259.202 142.548 259.009C142.785 258.616 142.927 258.173 142.964 257.716L143.499 254.461C143.511 254.293 143.573 254.132 143.678 254C143.843 253.887 144.041 253.829 144.242 253.837C145.595 253.837 146.947 253.837 148.314 253.837C148.537 253.109 147.824 252.44 147.125 252.143C146.427 251.846 145.639 251.608 145.268 250.939C144.554 249.557 146.382 247.654 145.61 246.48C144.837 245.306 143.172 246.362 141.983 246.956Z" fill="#0036FF"/>
<path opacity="0.5" d="M45.8268 46.1725C45.6933 46.2572 45.5391 46.3035 45.381 46.3063C45.2366 46.2804 45.1022 46.2155 44.9921 46.1186C44.8821 46.0216 44.8007 45.8964 44.7568 45.7564C44.1029 44.2702 44.4745 42.4868 43.4787 41.2979C42.4521 42.5232 41.6246 43.9024 41.0265 45.3849L37.1921 44.1959C37.0036 44.9495 36.9711 45.7337 37.0963 46.5003C37.2215 47.267 37.502 48 37.9204 48.6545C37.2444 48.9424 36.6291 49.3559 36.1072 49.8732C35.8498 50.1369 35.6695 50.4661 35.5857 50.8249C35.5019 51.1838 35.5177 51.5587 35.6316 51.9092C36.5202 52.1312 37.4366 52.2213 38.3514 52.1767C38.2072 53.866 38.3023 55.5671 38.6337 57.2298C38.6454 57.3537 38.6816 57.474 38.7403 57.5837C38.799 57.6935 38.8789 57.7904 38.9755 57.8688C39.2579 58.0472 39.6146 57.8689 39.9118 57.7202C41.2381 56.8958 42.3245 55.7376 43.0625 54.3614L44.5487 57.7797C44.6503 58.1311 44.8778 58.4327 45.1878 58.6268C45.4062 58.7006 45.643 58.6998 45.8609 58.6245C46.0787 58.5492 46.2654 58.4036 46.3916 58.2107C46.6282 57.8176 46.7707 57.375 46.8078 56.9177L47.3428 53.6778C47.3542 53.5097 47.4164 53.3491 47.5211 53.2171C47.6805 53.0903 47.8834 53.0316 48.0859 53.0536C49.4383 53.0536 50.8056 53.0536 52.158 53.0536C52.3809 52.3402 51.6676 51.6714 50.9691 51.3593C50.2706 51.0472 49.4829 50.8243 49.1113 50.1555C48.398 48.7882 50.2408 46.8711 49.4531 45.697C48.6655 44.5229 47.0158 45.5929 45.8268 46.1725Z" fill="#0036FF"/>
<path opacity="0.5" d="M96.9967 159.316C96.865 159.405 96.7095 159.451 96.5508 159.45C96.2536 159.45 96.0604 159.167 95.9415 158.9C95.2876 157.414 95.6591 155.63 94.6485 154.441C93.6317 155.671 92.8097 157.049 92.2112 158.528L88.362 157.339C88.1779 158.093 88.1474 158.877 88.2725 159.643C88.3977 160.409 88.6757 161.142 89.0902 161.798C88.4198 162.095 87.8101 162.513 87.2919 163.032C87.0331 163.294 86.8518 163.624 86.7679 163.983C86.684 164.342 86.7007 164.717 86.8163 165.068C87.7011 165.282 88.6115 165.372 89.5212 165.335C89.3819 167.025 89.482 168.726 89.8184 170.388C89.8274 170.511 89.8609 170.631 89.9171 170.741C89.9733 170.851 90.0509 170.948 90.1453 171.027C90.4277 171.206 90.7993 171.027 91.0816 170.864C92.4114 170.045 93.503 168.892 94.2472 167.52L95.7334 170.923C95.8317 171.28 96.0595 171.587 96.3725 171.785C96.5885 171.861 96.8237 171.861 97.0397 171.785C97.2557 171.709 97.4396 171.563 97.5614 171.369C97.8033 170.977 97.9509 170.535 97.9925 170.076L98.5275 166.836C98.5269 166.654 98.596 166.479 98.7207 166.346C98.7983 166.281 98.8886 166.233 98.9858 166.205C99.0831 166.176 99.1851 166.169 99.2854 166.182C100.633 166.182 101.985 166.182 103.343 166.182C103.58 165.469 102.867 164.785 102.169 164.488C101.47 164.191 100.682 163.953 100.311 163.284C99.5975 161.917 101.426 160 100.653 158.826C99.8799 157.652 98.1857 158.736 96.9967 159.316Z" fill="#0036FF"/>
<path opacity="0.5" d="M59.8567 115.221C59.7191 115.296 59.5672 115.342 59.4108 115.354C59.2687 115.322 59.1376 115.253 59.0307 115.153C58.9237 115.054 58.8447 114.929 58.8015 114.79C58.1476 113.378 58.5192 111.535 57.5086 110.331C56.4863 111.562 55.6638 112.946 55.0712 114.433L51.2219 113.244C51.0395 113.998 51.01 114.781 51.135 115.547C51.2601 116.313 51.5373 117.046 51.9502 117.703C51.2742 117.99 50.6589 118.404 50.137 118.921C49.8836 119.187 49.707 119.517 49.6259 119.876C49.5448 120.234 49.5622 120.608 49.6763 120.957C50.5597 121.18 51.4713 121.27 52.3812 121.225C52.2419 122.915 52.342 124.616 52.6785 126.278C52.6874 126.401 52.721 126.521 52.7771 126.631C52.8333 126.74 52.9109 126.838 53.0054 126.917C53.2877 127.095 53.6593 126.917 53.9417 126.768C55.2698 125.942 56.3606 124.784 57.1073 123.41L58.5935 126.828C58.6912 127.177 58.9132 127.478 59.2176 127.675C59.436 127.749 59.6728 127.748 59.8907 127.673C60.1086 127.597 60.2952 127.452 60.4214 127.259C60.6633 126.867 60.8109 126.424 60.8525 125.966L61.3726 122.726C61.3841 122.558 61.4462 122.397 61.5509 122.265C61.7149 122.136 61.9234 122.077 62.1306 122.102C63.4781 122.102 64.8305 122.102 66.1878 122.102C66.4256 121.388 65.6974 120.72 65.0138 120.407C64.3301 120.095 63.5276 119.872 63.1412 119.204C62.4427 117.836 64.2707 115.919 63.4979 114.745C62.725 113.571 61.0456 114.626 59.8567 115.221Z" fill="#0036FF"/>
<path opacity="0.5" d="M219.384 125.594C219.252 125.683 219.097 125.73 218.938 125.728C218.641 125.728 218.448 125.446 218.329 125.178C217.675 123.692 218.046 121.909 217.036 120.72C216.014 121.946 215.191 123.325 214.598 124.807L210.749 123.618C210.565 124.372 210.535 125.155 210.66 125.921C210.785 126.687 211.063 127.42 211.477 128.076C210.804 128.375 210.19 128.793 209.664 129.31C209.411 129.576 209.234 129.906 209.153 130.264C209.072 130.623 209.09 130.997 209.204 131.346C210.088 131.561 210.999 131.651 211.908 131.613C211.769 133.303 211.869 135.005 212.206 136.667C212.215 136.789 212.248 136.909 212.304 137.019C212.361 137.129 212.438 137.226 212.533 137.306C212.815 137.484 213.187 137.306 213.469 137.142C214.799 136.324 215.89 135.171 216.635 133.798L218.121 137.202C218.219 137.558 218.447 137.866 218.76 138.064C218.976 138.136 219.21 138.135 219.426 138.06C219.641 137.984 219.825 137.839 219.949 137.647C220.191 137.256 220.338 136.813 220.38 136.354L220.915 133.115C220.907 133.02 220.922 132.925 220.958 132.837C220.995 132.749 221.052 132.671 221.125 132.61C221.198 132.549 221.284 132.506 221.377 132.485C221.47 132.465 221.566 132.466 221.658 132.49C223.015 132.49 224.368 132.49 225.715 132.49C225.953 131.777 225.225 131.093 224.541 130.796C223.857 130.499 223.055 130.261 222.669 129.592C221.97 128.225 223.798 126.308 223.025 125.134C222.252 123.96 220.588 125.015 219.384 125.594Z" fill="#0036FF"/>
<path opacity="0.2" d="M141.984 116.915C141.845 117.001 141.686 117.048 141.523 117.048C141.24 117.048 141.032 116.766 140.914 116.499C140.26 115.012 140.631 113.229 139.635 112.04C138.609 113.265 137.781 114.645 137.183 116.127L133.349 114.938C133.16 115.692 133.128 116.476 133.253 117.243C133.378 118.009 133.659 118.742 134.077 119.397C133.401 119.685 132.786 120.098 132.264 120.615C132.007 120.879 131.826 121.208 131.742 121.567C131.659 121.926 131.674 122.301 131.788 122.651C132.677 122.874 133.593 122.964 134.508 122.919C134.364 124.608 134.459 126.309 134.79 127.972C134.816 128.218 134.933 128.446 135.117 128.611C135.4 128.789 135.771 128.611 136.054 128.462C137.385 127.64 138.477 126.482 139.219 125.104L140.705 128.522C140.807 128.873 141.035 129.175 141.345 129.369C141.563 129.443 141.8 129.442 142.018 129.367C142.235 129.291 142.422 129.146 142.548 128.953C142.785 128.56 142.927 128.117 142.965 127.66L143.5 124.42C143.511 124.252 143.573 124.091 143.678 123.959C143.837 123.832 144.04 123.774 144.243 123.796C145.595 123.796 146.947 123.796 148.315 123.796C148.538 123.082 147.824 122.414 147.126 122.102C146.427 121.789 145.64 121.566 145.268 120.898C144.555 119.53 146.383 117.613 145.61 116.439C144.837 115.265 143.173 116.335 141.984 116.915Z" fill="#0036FF"/>
<path opacity="0.3" d="M117.684 127.496C117.547 127.571 117.395 127.617 117.239 127.63C117.096 127.597 116.965 127.528 116.858 127.429C116.751 127.33 116.672 127.204 116.629 127.065C115.975 125.579 116.347 123.81 115.336 122.606C114.311 123.835 113.488 125.22 112.899 126.708L109.05 125.505C108.868 126.259 108.839 127.042 108.964 127.807C109.089 128.573 109.366 129.306 109.778 129.963C109.102 130.251 108.487 130.665 107.965 131.182C107.711 131.448 107.535 131.778 107.454 132.136C107.372 132.495 107.39 132.868 107.504 133.218C108.387 133.44 109.299 133.531 110.209 133.485C110.07 135.175 110.17 136.876 110.506 138.538C110.515 138.661 110.549 138.781 110.605 138.891C110.661 139.001 110.739 139.098 110.833 139.177C111.115 139.356 111.487 139.177 111.769 139.029C113.098 138.202 114.188 137.045 114.935 135.67L116.421 139.088C116.523 139.44 116.75 139.741 117.06 139.935C117.276 140.008 117.511 140.007 117.726 139.931C117.941 139.856 118.126 139.711 118.249 139.519C118.491 139.127 118.639 138.685 118.68 138.226L119.215 134.986C119.221 134.82 119.278 134.659 119.379 134.526C119.543 134.397 119.751 134.338 119.958 134.362C121.316 134.362 122.668 134.362 124.016 134.362C124.253 133.649 123.525 132.98 122.841 132.668C122.158 132.356 121.355 132.133 120.969 131.464C120.27 130.097 122.098 128.18 121.326 127.006C120.553 125.831 118.873 126.902 117.684 127.496Z" fill="#0036FF"/>
<path opacity="0.2" d="M95.0492 63.5309C94.9111 63.6175 94.7514 63.6638 94.5884 63.6647C94.306 63.6647 94.098 63.3823 93.9791 63.1148C93.3252 61.6286 93.6967 59.8452 92.701 58.6562C91.6744 59.8816 90.8469 61.2608 90.2488 62.7433L86.4144 61.5543C86.2224 62.3076 86.188 63.0924 86.3133 63.8596C86.4386 64.6268 86.721 65.3598 87.1427 66.0129C86.469 66.3116 85.8547 66.7295 85.3295 67.2464C85.0707 67.5093 84.8894 67.8384 84.8055 68.1976C84.7216 68.5568 84.7383 68.9322 84.8539 69.2825C85.7437 69.497 86.6591 69.587 87.5736 69.55C87.4299 71.2393 87.525 72.9403 87.856 74.603C87.8818 74.8493 87.9983 75.0771 88.1829 75.2421C88.4653 75.4204 88.8369 75.2421 89.1192 75.0786C90.4535 74.2659 91.5464 73.1114 92.2848 71.7347L93.771 75.1381C93.8777 75.4908 94.1036 75.7955 94.4101 76.0001C94.6285 76.0739 94.8652 76.0731 95.0831 75.9978C95.301 75.9224 95.4877 75.7769 95.6139 75.5839C95.8505 75.1908 95.993 74.7483 96.0301 74.2909L96.5651 71.0511C96.5746 70.8825 96.637 70.7213 96.7434 70.5903C96.9028 70.4636 97.1057 70.4048 97.3082 70.4269C98.6606 70.4269 100.028 70.4269 101.38 70.4269C101.603 69.6986 100.89 69.0298 100.191 68.7326C99.4929 68.4354 98.7052 68.1976 98.3336 67.5288C97.6203 66.1466 99.4482 64.2443 98.6754 63.0702C97.9026 61.8961 96.2382 62.9513 95.0492 63.5309Z" fill="#0036FF"/>
<path opacity="0.3" d="M139.65 147.025C139.506 147.099 139.35 147.144 139.189 147.159C138.907 147.159 138.699 146.862 138.58 146.594C137.926 145.182 138.298 143.34 137.302 142.136C136.275 143.367 135.448 144.751 134.85 146.238L131.015 145.049C130.825 145.802 130.792 146.587 130.917 147.354C131.042 148.12 131.323 148.853 131.744 149.507C131.068 149.795 130.452 150.209 129.93 150.726C129.673 150.99 129.493 151.319 129.409 151.678C129.325 152.037 129.341 152.411 129.455 152.762C130.343 152.984 131.26 153.074 132.175 153.029C132.03 154.719 132.126 156.42 132.457 158.083C132.483 158.329 132.599 158.557 132.784 158.722C133.066 158.9 133.438 158.722 133.735 158.573C135.059 157.746 136.145 156.588 136.886 155.214L138.372 158.632C138.473 158.984 138.701 159.285 139.011 159.48C139.229 159.553 139.466 159.553 139.684 159.477C139.902 159.402 140.089 159.256 140.215 159.063C140.451 158.67 140.594 158.228 140.631 157.77L141.166 154.531C141.177 154.362 141.24 154.202 141.344 154.07C141.504 153.943 141.707 153.884 141.909 153.906C143.262 153.906 144.629 153.906 145.981 153.906C146.204 153.193 145.491 152.524 144.792 152.212C144.094 151.9 143.306 151.677 142.935 151.008C142.221 149.641 144.049 147.724 143.276 146.55C142.504 145.376 140.839 146.401 139.65 147.025Z" fill="#0036FF"/>
</g>
</svg>
