<!-- icon666.com - MILLIONS vector ICONS FREE --><svg xmlns="http://www.w3.org/2000/svg" id="Layer_3" data-name="Layer 3" viewBox="0 0 64 64"><path d="M16,63l4-14,7.933-9.52A8.912,8.912,0,0,0,30,33.772h0a8.918,8.918,0,0,0-3.97-7.419h0A8.062,8.062,0,0,0,21.561,25h0a3.12,3.12,0,0,0-2.5,1.249L14,33l-1.4-3.5A2.386,2.386,0,0,0,10.385,28h0A2.385,2.385,0,0,0,8,30.385H8a31.6,31.6,0,0,0,.43,5.194h0A18.51,18.51,0,0,1,8.293,42.4L4,63" style="fill:#f2b0ae"></path><path d="M48,63,44,49l-7.933-9.52A8.912,8.912,0,0,1,34,33.772h0a8.918,8.918,0,0,1,3.97-7.419h0A8.062,8.062,0,0,1,42.439,25h0a3.12,3.12,0,0,1,2.5,1.249L50,33l1.4-3.5A2.386,2.386,0,0,1,53.615,28h0A2.385,2.385,0,0,1,56,30.385h0a31.6,31.6,0,0,1-.43,5.194h0a18.51,18.51,0,0,0,.137,6.816L60,63" style="fill:#f2b0ae"></path><path d="M9.272,42.6a19.437,19.437,0,0,0,.144-7.184A30.693,30.693,0,0,1,9,30.385a1.385,1.385,0,0,1,2.671-.514l1.4,3.5A1,1,0,0,0,14.8,33.6l5.063-6.751a2.131,2.131,0,0,1,1.7-.849,7.052,7.052,0,0,1,2.093.32l-6.392,7.006,1.476,1.348,6.794-7.445a7.916,7.916,0,0,1,1.6,1.458l-6.879,7.644,1.486,1.338,6.507-7.23a7.889,7.889,0,0,1,.569,1.707l-6.556,7.179,1.476,1.348L28.9,35.027a7.932,7.932,0,0,1-1.73,3.813l-7.934,9.52a1.026,1.026,0,0,0-.193.365l-4,14,1.924.55,1.5-5.239a20.943,20.943,0,0,0,27.081,0l1.5,5.243,1.924-.55-4-14a1.026,1.026,0,0,0-.193-.365l-7.934-9.52a7.933,7.933,0,0,1-1.73-3.812l5.156,5.645,1.476-1.348-6.556-7.179a7.889,7.889,0,0,1,.569-1.707l6.507,7.23,1.486-1.338-6.879-7.644a7.916,7.916,0,0,1,1.6-1.458l6.794,7.445,1.476-1.348L40.346,26.32A7.052,7.052,0,0,1,42.439,26a2.131,2.131,0,0,1,1.7.849L49.2,33.6a.989.989,0,0,0,.931.391,1,1,0,0,0,.8-.619l1.4-3.5A1.385,1.385,0,0,1,55,30.385a30.693,30.693,0,0,1-.416,5.03,19.416,19.416,0,0,0,.145,7.184L59.021,63.2l1.958-.408-4.292-20.6a17.409,17.409,0,0,1-.13-6.447A32.712,32.712,0,0,0,57,30.385,3.367,3.367,0,0,0,55.777,27.8C54.176,12.492,44.018,1,32,1S9.824,12.492,8.223,27.8A3.367,3.367,0,0,0,7,30.385a32.712,32.712,0,0,0,.443,5.359,17.43,17.43,0,0,1-.129,6.447L3.021,62.8l1.958.408Zm40.46-11.622-4-5.329A4.141,4.141,0,0,0,42.439,24a9.027,9.027,0,0,0-5.023,1.521A9.916,9.916,0,0,0,35.3,40.12l7.8,9.358L44.93,55.9a18.927,18.927,0,0,1-25.86,0L20.9,49.478l7.8-9.358a9.916,9.916,0,0,0-2.118-14.6A9.027,9.027,0,0,0,21.561,24a4.141,4.141,0,0,0-3.3,1.648l-4,5.329-.646-1.615c.136-.9.288-1.813.468-2.713a4.538,4.538,0,0,1,5.2-3.587A69.175,69.175,0,0,0,30.623,24h2.754a69.153,69.153,0,0,0,11.334-.938,4.589,4.589,0,0,1,5.2,3.587c.18.9.332,1.811.468,2.713ZM32,3C42.728,3,51.859,13.223,53.673,27.006c-.02,0-.038-.006-.058-.006a3.386,3.386,0,0,0-1.551.379c-.067-.375-.118-.75-.193-1.122a6.539,6.539,0,0,0-7.487-5.168A67.168,67.168,0,0,1,33.377,22H30.623a67.189,67.189,0,0,1-11.008-.911,6.538,6.538,0,0,0-7.486,5.168c-.075.372-.126.747-.193,1.122A3.386,3.386,0,0,0,10.385,27c-.02,0-.038,0-.058.006C12.141,13.223,21.272,3,32,3Z" style="fill:#b1404a"></path><path d="M31,44.586l-1.293-1.293-1.414,1.414L29.586,46a3.414,3.414,0,0,0,4.828,0l1.293-1.293-1.414-1.414L33,44.585A1.447,1.447,0,0,1,31,44.586Z" style="fill:#b1404a"></path><path d="M31.6,53a5.724,5.724,0,0,1-4.773-2.555l-1.664,1.11A7.72,7.72,0,0,0,31.6,55h.79a7.724,7.724,0,0,0,6.437-3.445l-1.664-1.11A5.727,5.727,0,0,1,32.394,53Z" style="fill:#b1404a"></path></svg>